<svg xmlns="http://www.w3.org/2000/svg" viewBox="0 0 500 500"><g id="freepik--background-complete--inject-99"><rect x="416.78" y="398.49" width="33.12" height="0.25" style="fill:#ebebeb"></rect><rect x="322.53" y="401.21" width="8.69" height="0.25" style="fill:#ebebeb"></rect><rect x="396.59" y="389.21" width="19.19" height="0.25" style="fill:#ebebeb"></rect><rect x="52.46" y="390.89" width="43.19" height="0.25" style="fill:#ebebeb"></rect><rect x="104.56" y="390.89" width="6.33" height="0.25" style="fill:#ebebeb"></rect><rect x="131.47" y="395.11" width="93.68" height="0.25" style="fill:#ebebeb"></rect><path d="M237,337.8H43.92a5.71,5.71,0,0,1-5.71-5.71V60.66A5.71,5.71,0,0,1,43.92,55H237a5.71,5.71,0,0,1,5.71,5.71V332.09A5.71,5.71,0,0,1,237,337.8ZM43.92,55.2a5.47,5.47,0,0,0-5.46,5.46V332.09a5.47,5.47,0,0,0,5.46,5.46H237a5.47,5.47,0,0,0,5.46-5.46V60.66A5.47,5.47,0,0,0,237,55.2Z" style="fill:#ebebeb"></path><path d="M453.31,337.8H260.21a5.72,5.72,0,0,1-5.71-5.71V60.66A5.72,5.72,0,0,1,260.21,55h193.1A5.71,5.71,0,0,1,459,60.66V332.09A5.71,5.71,0,0,1,453.31,337.8ZM260.21,55.2a5.47,5.47,0,0,0-5.46,5.46V332.09a5.47,5.47,0,0,0,5.46,5.46h193.1a5.47,5.47,0,0,0,5.46-5.46V60.66a5.47,5.47,0,0,0-5.46-5.46Z" style="fill:#ebebeb"></path><rect y="382.4" width="500" height="0.25" style="fill:#ebebeb"></rect><rect x="33.66" y="263.54" width="230.65" height="7.16" transform="translate(416.1 118.13) rotate(90)" style="fill:#e6e6e6"></rect><rect x="-42.65" y="263.54" width="230.65" height="7.16" transform="translate(339.79 194.45) rotate(90)" style="fill:#f0f0f0"></rect><rect x="310.01" y="263.54" width="230.65" height="7.16" transform="translate(692.45 -158.21) rotate(90)" style="fill:#e6e6e6"></rect><rect x="345.43" y="342.03" width="83.48" height="10.55" transform="translate(774.34 694.6) rotate(180)" style="fill:#f5f5f5"></rect><rect x="69.09" y="342.03" width="276.34" height="10.55" transform="translate(414.52 694.6) rotate(180)" style="fill:#f5f5f5"></rect><rect x="345.43" y="246.91" width="83.48" height="10.55" transform="translate(774.34 504.37) rotate(180)" style="fill:#f5f5f5"></rect><rect x="69.09" y="246.91" width="276.34" height="10.55" transform="translate(414.52 504.37) rotate(180)" style="fill:#f5f5f5"></rect><rect x="345.43" y="151.79" width="83.48" height="10.55" transform="translate(774.34 314.14) rotate(180)" style="fill:#f5f5f5"></rect><rect x="69.09" y="151.79" width="276.34" height="10.55" transform="translate(414.52 314.14) rotate(180)" style="fill:#f5f5f5"></rect><rect x="233.69" y="263.54" width="230.65" height="7.16" transform="translate(616.13 -81.9) rotate(90)" style="fill:#f0f0f0"></rect><polygon points="381.03 177.52 401.53 177.52 402.53 167.85 380.03 167.85 381.03 177.52" style="fill:#e6e6e6"></polygon><rect x="379.28" y="178.19" width="24" height="17.73" transform="translate(782.56 374.1) rotate(180)" style="fill:#f5f5f5"></rect><path d="M375.28,178.19h32a2,2,0,0,0,2-2h0a2,2,0,0,0-2-2h-32a2,2,0,0,0-2,2h0A2,2,0,0,0,375.28,178.19Z" style="fill:#f5f5f5"></path><path d="M383.12,186.92h16.31a14.51,14.51,0,0,1,14.51,14.51v33.8a12.08,12.08,0,0,1-12.08,12.08H380.69a12.08,12.08,0,0,1-12.08-12.08v-33.8A14.51,14.51,0,0,1,383.12,186.92Z" transform="translate(782.56 434.23) rotate(180)" style="fill:#f0f0f0"></path><rect x="379.29" y="200.56" width="25.5" height="25.5" style="fill:#fafafa"></rect><rect x="389.9" y="206.29" width="4.3" height="14.82" style="fill:#e0e0e0"></rect><rect x="389.9" y="206.29" width="4.3" height="14.82" transform="translate(178.35 605.76) rotate(-90)" style="fill:#e0e0e0"></rect><polygon points="241.54 295.03 257.19 295.03 257.95 287.65 240.78 287.65 241.54 295.03" style="fill:#e6e6e6"></polygon><rect x="240.2" y="295.54" width="18.32" height="13.53" transform="translate(498.73 604.61) rotate(180)" style="fill:#f5f5f5"></rect><path d="M240.51,342.64a8.4,8.4,0,0,1-8.4-7.58c0-.41-.05-.83-.05-1.26V314.29a12.08,12.08,0,0,1,12.08-12.08h10.45a12.08,12.08,0,0,1,12.08,12.08V333.8c0,.43,0,.85-.05,1.26a8.4,8.4,0,0,1-8.4,7.58Z" style="fill:#f0f0f0"></path><path d="M237.15,295.54h24.43a1.53,1.53,0,0,0,1.53-1.53h0a1.53,1.53,0,0,0-1.53-1.52H237.15a1.53,1.53,0,0,0-1.53,1.52h0A1.53,1.53,0,0,0,237.15,295.54Z" style="fill:#f0f0f0"></path><path d="M222,246.8H209.14a4.61,4.61,0,0,1-2.79-1,15.18,15.18,0,1,1,18.31.11A4.47,4.47,0,0,1,222,246.8Z" style="fill:#f5f5f5"></path><rect x="211.47" y="205.81" width="8.2" height="20.27" transform="translate(431.14 431.89) rotate(180)" style="fill:#f5f5f5"></rect><path d="M210.58,207h10a1.68,1.68,0,0,0,1.68-1.68h0a1.68,1.68,0,0,0-1.68-1.68h-10a1.68,1.68,0,0,0-1.68,1.68h0A1.68,1.68,0,0,0,210.58,207Z" style="fill:#f5f5f5"></path><path d="M197.89,237.91a5.14,5.14,0,0,0,6.18-1.53c2.32-2.79.77-5.45-.39-8.3-1-2.57-1.36-4.77-.31-7.37a43.49,43.49,0,0,0,1.78-4c.65-2.26.19-4.48-.25-6.72-.49-2.56-1.36-5.5-.37-8,1.45-3.76,8.71-6.29,11.66-3a6.36,6.36,0,0,1,1.28,4.61h-1.81c0-2.92-1.32-5.17-5.66-4-8,2.25-1.63,11.83-3.24,17.49-.76,2.69-2.72,4.81-2.33,7.75.45,3.44,3.19,5.88,2.41,9.58a7,7,0,0,1-9.79,4.9C196.08,238.88,196.93,237.44,197.89,237.91Z" style="fill:#ebebeb"></path><path d="M206.34,211.59s.63,9.65,4.84,5.42S206.34,211.59,206.34,211.59Z" style="fill:#ebebeb"></path><path d="M203.83,223.3s-8.84,3.92-3.41,6.42S203.83,223.3,203.83,223.3Z" style="fill:#ebebeb"></path><path d="M202.78,238.56s-8.83,3.92-3.41,6.41S202.78,238.56,202.78,238.56Z" style="fill:#ebebeb"></path><path d="M199,239s-3.89-8.85-6.4-3.44S199,239,199,239Z" style="fill:#ebebeb"></path><path d="M209.16,198.57s-6.37-7.27-7.14-1.35S209.16,198.57,209.16,198.57Z" style="fill:#ebebeb"></path><path d="M205.29,207s-9.48,1.89-4.73,5.51S205.29,207,205.29,207Z" style="fill:#ebebeb"></path><path d="M186.82,342.64h-9.27a3.26,3.26,0,0,1-2-.69,10.94,10.94,0,1,1,13.18.08A3.15,3.15,0,0,1,186.82,342.64Z" style="fill:#f0f0f0"></path><rect x="179.23" y="306.69" width="5.9" height="22.64" transform="translate(364.36 636.01) rotate(180)" style="fill:#f0f0f0"></rect><path d="M178.59,307.51h7.18A1.21,1.21,0,0,0,187,306.3h0a1.21,1.21,0,0,0-1.21-1.21h-7.18a1.21,1.21,0,0,0-1.21,1.21h0A1.21,1.21,0,0,0,178.59,307.51Z" style="fill:#f0f0f0"></path><rect x="220.96" y="130.7" width="3.84" height="19.01" style="fill:#f5f5f5"></rect><path d="M227.56,149.71h-9.35c-.88,0-1.58.47-1.58,1h0c0,.58.7,1,1.58,1h9.35c.88,0,1.58-.46,1.58-1h0C229.14,150.18,228.44,149.71,227.56,149.71Z" style="fill:#f5f5f5"></path><path d="M238.27,122.23h0a22.35,22.35,0,0,0-5.26,6.23,18.84,18.84,0,0,1-6.45,6.62l-3.68,2.24-3.67-2.24a18.87,18.87,0,0,1-6.46-6.62,22.15,22.15,0,0,0-5.25-6.23h0c-.72-1.06,7.34-1.59,15.38-1.59S239,121.17,238.27,122.23Z" style="fill:#f5f5f5"></path><rect x="326.75" y="301.92" width="7.78" height="19.23" transform="translate(661.28 623.07) rotate(180)" style="fill:#ebebeb"></rect><path d="M325.91,303h9.47a1.59,1.59,0,0,0,1.59-1.59h0a1.6,1.6,0,0,0-1.59-1.6h-9.47a1.6,1.6,0,0,0-1.6,1.6h0A1.6,1.6,0,0,0,325.91,303Z" style="fill:#ebebeb"></path><path d="M346.21,337.57l-15.57-23.13-15.56,23.13a3.25,3.25,0,0,0,2.7,5.07h25.73A3.26,3.26,0,0,0,346.21,337.57Z" style="fill:#ebebeb"></path><path d="M411.65,306a.55.55,0,0,1,.39.93l-2.31,2.31v30.45a2.93,2.93,0,0,1-2.93,2.93H389.66a2.93,2.93,0,0,1-2.93-2.93V306Z" style="fill:#f0f0f0"></path><path d="M295.32,110.11a.62.62,0,0,1,.43,1.06l-2.62,2.62v34.67a3.34,3.34,0,0,1-3.34,3.33H270.28a3.33,3.33,0,0,1-3.33-3.33V110.11Z" style="fill:#f5f5f5"></path><path d="M275.1,112.34h-4.62a.4.4,0,0,1,0-.8h4.62a.4.4,0,0,1,0,.8Z" style="fill:#e6e6e6"></path><path d="M273.31,114.79h-2.83a.4.4,0,0,1,0-.8h2.83a.4.4,0,0,1,0,.8Z" style="fill:#e6e6e6"></path><path d="M273.31,117.24h-2.83a.41.41,0,0,1,0-.81h2.83a.41.41,0,0,1,0,.81Z" style="fill:#e6e6e6"></path><path d="M273.31,119.69h-2.83a.41.41,0,0,1,0-.81h2.83a.41.41,0,0,1,0,.81Z" style="fill:#e6e6e6"></path><path d="M273.31,122.13h-2.83a.4.4,0,0,1,0-.8h2.83a.4.4,0,0,1,0,.8Z" style="fill:#e6e6e6"></path><path d="M275.1,124.58h-4.62a.4.4,0,0,1,0-.8h4.62a.4.4,0,0,1,0,.8Z" style="fill:#e6e6e6"></path><path d="M273.31,127h-2.83a.41.41,0,0,1,0-.81h2.83a.41.41,0,0,1,0,.81Z" style="fill:#e6e6e6"></path><path d="M273.31,129.48h-2.83a.41.41,0,0,1,0-.81h2.83a.41.41,0,0,1,0,.81Z" style="fill:#e6e6e6"></path><path d="M273.31,131.92h-2.83a.4.4,0,0,1,0-.8h2.83a.4.4,0,0,1,0,.8Z" style="fill:#e6e6e6"></path><path d="M273.31,134.37h-2.83a.4.4,0,0,1,0-.8h2.83a.4.4,0,0,1,0,.8Z" style="fill:#e6e6e6"></path><path d="M275.1,136.82h-4.62a.41.41,0,0,1,0-.81h4.62a.41.41,0,0,1,0,.81Z" style="fill:#e6e6e6"></path><path d="M273.31,139.27h-2.83a.41.41,0,0,1,0-.81h2.83a.41.41,0,0,1,0,.81Z" style="fill:#e6e6e6"></path><path d="M273.31,141.72h-2.83a.41.41,0,0,1,0-.81h2.83a.41.41,0,0,1,0,.81Z" style="fill:#e6e6e6"></path><path d="M273.31,144.16h-2.83a.4.4,0,0,1,0-.8h2.83a.4.4,0,0,1,0,.8Z" style="fill:#e6e6e6"></path><path d="M273.31,146.61h-2.83a.41.41,0,0,1,0-.81h2.83a.41.41,0,0,1,0,.81Z" style="fill:#e6e6e6"></path><path d="M275.1,149.06h-4.62a.41.41,0,0,1,0-.81h4.62a.41.41,0,0,1,0,.81Z" style="fill:#e6e6e6"></path><path d="M111.62,231.43H88.56a4.28,4.28,0,0,1-4.28-4.28v-14h2v14a2.29,2.29,0,0,0,2.28,2.28h23.06Z" style="fill:#e0e0e0"></path><circle cx="111.62" cy="213.14" r="12.69" style="fill:#f0f0f0"></circle><path d="M122.55,243.34H115l-.91-20h-5l-.92,20h-7.52A3.65,3.65,0,0,0,97,247v.32H126.2V247A3.65,3.65,0,0,0,122.55,243.34Z" style="fill:#ebebeb"></path><path d="M89.44,213.14A4.17,4.17,0,1,1,85.28,209,4.16,4.16,0,0,1,89.44,213.14Z" style="fill:#f0f0f0"></path><path d="M134.64,142.68h0a2.86,2.86,0,0,0,2.85-2.85V116.67h-5.71v23.16A2.86,2.86,0,0,0,134.64,142.68Z" style="fill:#f5f5f5"></path><path d="M131.16,117.47h7a1.17,1.17,0,0,0,1.17-1.17h0a1.17,1.17,0,0,0-1.17-1.17h-7A1.17,1.17,0,0,0,130,116.3h0A1.17,1.17,0,0,0,131.16,117.47Z" style="fill:#f5f5f5"></path><path d="M122.24,142.68h0a2.86,2.86,0,0,0,2.86-2.85V116.67h-5.71v23.16A2.86,2.86,0,0,0,122.24,142.68Z" style="fill:#f5f5f5"></path><path d="M118.77,117.47h7a1.17,1.17,0,0,0,1.17-1.17h0a1.17,1.17,0,0,0-1.17-1.17h-7a1.17,1.17,0,0,0-1.17,1.17h0A1.17,1.17,0,0,0,118.77,117.47Z" style="fill:#f5f5f5"></path><path d="M109.85,142.68h0a2.86,2.86,0,0,0,2.86-2.85V116.67H107v23.16A2.85,2.85,0,0,0,109.85,142.68Z" style="fill:#f5f5f5"></path><path d="M106.37,117.47h7a1.17,1.17,0,0,0,1.17-1.17h0a1.17,1.17,0,0,0-1.17-1.17h-7a1.17,1.17,0,0,0-1.17,1.17h0A1.17,1.17,0,0,0,106.37,117.47Z" style="fill:#f5f5f5"></path><path d="M97.46,142.68h0a2.86,2.86,0,0,0,2.85-2.85V116.67H94.6v23.16A2.86,2.86,0,0,0,97.46,142.68Z" style="fill:#f5f5f5"></path><path d="M94,117.47h7a1.17,1.17,0,0,0,1.18-1.17h0a1.17,1.17,0,0,0-1.18-1.17H94a1.17,1.17,0,0,0-1.17,1.17h0A1.17,1.17,0,0,0,94,117.47Z" style="fill:#f5f5f5"></path><path d="M88.21,119.16v32.63h2.66v-3.26h50.36v3.26h2.65V119.16Zm2.66,23V121.82h50.36v24.06H90.87Z" style="fill:#ebebeb"></path><polygon points="133.95 342.64 107.49 307.51 81.02 342.64 133.95 342.64" style="fill:#f5f5f5"></polygon><polygon points="81.02 342.64 107.49 307.51 107.49 342.64 81.02 342.64" style="fill:#ebebeb"></polygon><path d="M387.84,108.14H367.75a7.45,7.45,0,0,0-7.44,7.44v2.49h4v-2.49a3.44,3.44,0,0,1,3.44-3.44h20.09a3.44,3.44,0,0,1,3.43,3.44v2.49h4v-2.49A7.44,7.44,0,0,0,387.84,108.14Z" style="fill:#e0e0e0"></path><path d="M407.46,123.5V146a5.45,5.45,0,0,1-5.44,5.44H353.17a5.44,5.44,0,0,1-5.43-5.44V123.5a5.43,5.43,0,0,1,5.43-5.43H402A5.44,5.44,0,0,1,407.46,123.5Z" style="fill:#f0f0f0"></path><rect x="365.05" y="121.93" width="25.5" height="25.5" style="fill:#fafafa"></rect><rect x="375.65" y="127.66" width="4.3" height="14.82" style="fill:#e0e0e0"></rect><rect x="375.65" y="127.66" width="4.3" height="14.82" transform="translate(242.73 512.88) rotate(-90)" style="fill:#e0e0e0"></rect><path d="M179.17,150.65a6.82,6.82,0,0,1-5.24-.29,12.84,12.84,0,0,1-4.22-3.29,12.27,12.27,0,0,1-2.79-4.55,6.3,6.3,0,0,1,.53-5.2,6.54,6.54,0,0,1,4.34-2.66,9.13,9.13,0,0,1,10.74,10.1C182.25,147.18,181.68,149.65,179.17,150.65Z" style="fill:#e0e0e0"></path><path d="M177.84,123.27a14.16,14.16,0,0,1,15.88,10.56c.5,2.36.4,4.93,1.64,7,.8,1.33,2.12,2.43,2.3,4,.23,2-1.59,3.61-3.23,4.8a15.36,15.36,0,0,1-5,2.76,5.23,5.23,0,0,1-5.29-1.3c-.62-.72-3-3.87-3.89-3.63s-3.45,3-4.95,1.51c-.92-.89-1.53-.61-.64-1.52-1.55.5,1,3.49-.73,3-4.84-1.51-7.85-7.47-8.63-9.54-1.35-3.61-.16-7.8,2.26-10.79A19.75,19.75,0,0,1,177.84,123.27Z" style="fill:#f5f5f5"></path><path d="M181.2,134.14a5.57,5.57,0,0,1,.44,4.49,4.69,4.69,0,0,1-3,3.3,3.82,3.82,0,0,1-4-1.52,5,5,0,0,1-.61-4.32c.4-1.31,1.57-3.27,2.95-3.76S180.43,132.89,181.2,134.14Z" style="fill:#e0e0e0"></path><path d="M183.35,132.28a5,5,0,0,0,2.86,2.85,4.2,4.2,0,0,0,4-.18,3.44,3.44,0,0,0,1.21-3.61,4.46,4.46,0,0,0-2.64-2.87c-1.13-.47-3.15-.77-4.27-.09A3.54,3.54,0,0,0,183.35,132.28Z" style="fill:#e0e0e0"></path><path d="M187.59,137.17a2.19,2.19,0,0,1,1.22.66,1.27,1.27,0,0,1-.57,1.79,1.89,1.89,0,0,1-2-.4,2,2,0,0,1-.22,1.37,1,1,0,0,1-1.23.43,1.11,1.11,0,0,1-.57-.94,3.41,3.41,0,0,1,.2-1.13c.15-.51.36-2.15.86-2.38S187.13,137.05,187.59,137.17Z" style="fill:#e0e0e0"></path><path d="M193.93,140.8c0,.38.57.8.59,1.17a7.57,7.57,0,0,1-1.18,1.29,43,43,0,0,1-8.06,5,4.11,4.11,0,0,0-2.47-1.66,2.24,2.24,0,0,1,2.55,1.05A33.38,33.38,0,0,0,194,142c-.29-.64-.9-1.76.14-2.19C194.15,139.76,193.87,139.8,193.93,140.8Z" style="fill:#e0e0e0"></path></g><g id="freepik--Shadow--inject-99"><ellipse id="freepik--path--inject-99" cx="250" cy="409.39" rx="193.89" ry="11.32" style="fill:#f5f5f5"></ellipse></g><g id="freepik--character-2--inject-99"><path d="M264.1,175.85,256,167.71a2.91,2.91,0,0,1-.85-2.06v-3a2.92,2.92,0,0,0-1.73-2.66l-2.28-1a3.07,3.07,0,0,1-.87-.6l-2.09-2.08a2.9,2.9,0,0,0-3.8-.28l-1.14.85a2.9,2.9,0,0,0-1.08,1.67l-1.19,5.07a2.9,2.9,0,0,0,1.14,3l5,3.62,2.88,1.88a3.26,3.26,0,0,1,.65.58l8.47,10.16Z" style="fill:#B757C2"></path><path d="M264.1,175.85,256,167.71a2.91,2.91,0,0,1-.85-2.06v-3a2.92,2.92,0,0,0-1.73-2.66l-2.28-1a3.07,3.07,0,0,1-.87-.6l-2.09-2.08a2.9,2.9,0,0,0-3.8-.28l-1.14.85a2.9,2.9,0,0,0-1.08,1.67l-1.19,5.07a2.9,2.9,0,0,0,1.14,3l5,3.62,2.88,1.88a3.26,3.26,0,0,1,.65.58l8.47,10.16Z" style="fill:#fff;opacity:0.30000000000000004"></path><path d="M304.47,140.34s-11.25,1-18.87,19.51-11.75,19.5-14.38,18A62.55,62.55,0,0,1,266,174.3a2.5,2.5,0,0,0-3.43.44l-4.78,6a2.48,2.48,0,0,0,0,3.09c2.84,3.56,10.39,11.68,18.68,9.45,11.25-3,19.47-19,20-23.91S304.47,140.34,304.47,140.34Z" style="fill:#B757C2"></path><path d="M304.47,140.34s-11.25,1-18.87,19.51-11.75,19.5-14.38,18A62.55,62.55,0,0,1,266,174.3a2.5,2.5,0,0,0-3.43.44l-4.78,6a2.48,2.48,0,0,0,0,3.09c2.84,3.56,10.39,11.68,18.68,9.45,11.25-3,19.47-19,20-23.91S304.47,140.34,304.47,140.34Z" style="fill:#fff;opacity:0.6000000000000001"></path><path d="M301.66,100.08s-7-4.24-7.1-.92,7.31,6.89,10.46,6.46Z" style="fill:#263238"></path><path d="M301.66,100.08s-7-4.24-7.1-.92,7.31,6.89,10.46,6.46Z" style="opacity:0.4"></path><path d="M295.94,384.16l.75,14.77a1.68,1.68,0,0,1-.84,1.54c-1.44.81-4.18,3.36-5.4,3.83a66.83,66.83,0,0,1-6.69,1.7,1.67,1.67,0,0,0-1.32,1.59h0a1.68,1.68,0,0,0,1.64,1.72l21.82-.46a1.68,1.68,0,0,0,1.71-1.58l1.21-22.38a1.69,1.69,0,0,0-1.55-1.77l-9.53-.72A1.68,1.68,0,0,0,295.94,384.16Z" style="fill:#263238"></path><path d="M291.92,239.6l1.95,89.4.53,54.53a2.9,2.9,0,0,0,2.9,2.82h10.3a2.9,2.9,0,0,0,2.89-2.61c1.23-12.23,6.15-31.63,3.95-54.49,0,0,7.39-60,7.84-78.33l-1.67-16.29Z" style="fill:#263238"></path><path d="M354.68,384.72l5.69,13.64a1.67,1.67,0,0,1-.27,1.73,59.16,59.16,0,0,1-4.16,4.51,68.82,68.82,0,0,1-5.72,3.86,1.65,1.65,0,0,0-.7,1.94h0a1.67,1.67,0,0,0,2.11,1.07l20.76-6.88a1.67,1.67,0,0,0,1.08-2.07L367,381.05a1.67,1.67,0,0,0-2.05-1.14l-9.21,2.55A1.67,1.67,0,0,0,354.68,384.72Z" style="fill:#263238"></path><path d="M315.76,256.85s-1.15,15.08,1.74,39.58c0,0,2.5-18,3.89-27.87Z" style="opacity:0.1"></path><path d="M309.83,240.23l21.78,91.17,21,53.13a2.83,2.83,0,0,0,3.57,1.6l10.74-3.48a2.82,2.82,0,0,0,1.79-3.37c-3-11.65-5.66-31-15.71-51,0,0-6-57.84-14.08-88.77Z" style="fill:#263238"></path><path d="M331.88,140.94s-.35-.13-1.07-.32V146h-26v-5.26l-1.06.16-3.25,2.41s-6.89,15-8.55,52.25v48.5h53Z" style="fill:#B757C2"></path><path d="M323.07,138.08c-1.77-5.46-1.39-13.29-.8-18.2l-11.84,11.71a14.47,14.47,0,0,1,.75,6.51,2.37,2.37,0,0,1-2.06,2l-5,1.58-.6,3.9,3.05.78,4.4.6,9.54-.6L331,141.44a19.87,19.87,0,0,0-4.92-.92A4.27,4.27,0,0,1,323.07,138.08Z" style="fill:#ffc3bd"></path><path d="M317.45,125.56l-6.82,6.68a16.18,16.18,0,0,1,.65,3.8c2.78-.64,6.19-3.26,7.07-6.41C318.92,127.69,318.19,125.73,317.45,125.56Z" style="opacity:0.2;isolation:isolate"></path><path d="M324.05,111c-.5,9-.36,14.28-4.88,18.9-6.79,7-17.92,2.88-20.09-6.06-2-8.11-.78-21.42,8-25a12.26,12.26,0,0,1,17,12.19Z" style="fill:#ffc3bd"></path><path d="M310,113.68c0,.74-.38,1.33-.86,1.33s-.87-.59-.87-1.32.38-1.32.86-1.32S310,113,310,113.68Z" style="fill:#263238"></path><path d="M301.73,113.72c0,.72-.38,1.32-.86,1.32s-.87-.59-.87-1.32.38-1.33.86-1.33S301.73,113,301.73,113.72Z" style="fill:#263238"></path><path d="M313.11,109.55a.52.52,0,0,0,.19-.11.45.45,0,0,0-.1-.6,4.29,4.29,0,0,0-3.87-.65.43.43,0,1,0,.31.8h0a3.42,3.42,0,0,1,3.06.55A.43.43,0,0,0,313.11,109.55Z" style="fill:#263238"></path><path d="M297.93,109.58a.39.39,0,0,0,.4,0,3.42,3.42,0,0,1,3-.55.42.42,0,0,0,.55-.25.42.42,0,0,0-.24-.55,4.28,4.28,0,0,0-3.88.65.42.42,0,0,0-.1.58h0A.41.41,0,0,0,297.93,109.58Z" style="fill:#263238"></path><path d="M323.93,115a6.94,6.94,0,0,0-4.94-2h-4.14a4.44,4.44,0,0,0-8.84-.2,1.28,1.28,0,0,0-1,0,4.36,4.36,0,1,0,0,.65.71.71,0,0,1,.91,0,4.44,4.44,0,0,0,8.87.12H319a6.37,6.37,0,0,1,4.53,1.88l1.34,1.34.4-.41Zm-23.3,2.13a3.89,3.89,0,1,1,3.88-3.89A3.89,3.89,0,0,1,300.63,117.1Zm9.79,0a3.89,3.89,0,1,1,3.89-3.89A3.89,3.89,0,0,1,310.42,117.1Z" style="fill:#B757C2"></path><path d="M323,98.47a12,12,0,0,0-9.43-5.66c-2.69-.14-5.62.59-7.92-.81-.84-.52-1.51-1.28-2.32-1.84a2.83,2.83,0,0,0-2.79-.46,8.51,8.51,0,0,0-4.26,8.76A9.28,9.28,0,0,0,302.8,105c4.07,1.08,8.48-.19,12.63.54,2.23.39,3.67,2.86,4.23,5.06.1.38.69.91.95,1.21,0,1.9,0,4.24,0,6.14a4.82,4.82,0,0,1,4.74-2.79L322,126.49a31.68,31.68,0,0,0,8-15.95,14.87,14.87,0,0,0-.77-7.87A6.51,6.51,0,0,0,323,98.47Z" style="fill:#263238"></path><path d="M328.48,119.4a8.6,8.6,0,0,1-5.32,3.79c-2.93.65-4.24-2-3.29-4.69.85-2.4,3.4-5.66,6.27-5.12S329.93,117,328.48,119.4Z" style="fill:#ffc3bd"></path><path d="M305.21,113.69a26.35,26.35,0,0,1-3.48,6.27c1.33,1.2,3.51.64,3.51.64Z" style="fill:#ed847e"></path><polygon points="292.54 244.1 293 247.34 331.21 249.35 331.21 244.1 292.54 244.1" style="opacity:0.1"></polygon><path d="M307.47,139.94s-2.06,4.91,3.29,5.54S327,139.94,327,139.94l2.31.53s-.06,8.88-11.89,12.3c0,0-3.42-4.42-6.83-4.5s-7.92,3.58-7.92,3.58S300.46,146,306.21,140Z" style="fill:#B757C2"></path><g style="opacity:0.2"><path d="M307.47,139.94s-2.06,4.91,3.29,5.54S327,139.94,327,139.94l2.31.53s-.06,8.88-11.89,12.3c0,0-3.42-4.42-6.83-4.5s-7.92,3.58-7.92,3.58S300.46,146,306.21,140Z"></path></g><path d="M307.47,139.94s-7.5,3.16-10.25,23.41-3.75,58.25-3,76,1.75,29.25-3.75,28.5c0,0-.5-28.5,0-60.25S287.72,140.52,307.47,139.94Z" style="fill:#B757C2"></path><path d="M307.47,139.94s-7.5,3.16-10.25,23.41-3.75,58.25-3,76,1.75,29.25-3.75,28.5c0,0-.5-28.5,0-60.25S287.72,140.52,307.47,139.94Z" style="fill:#fff;opacity:0.8"></path><path d="M330,139.94s-9,5-10,36.66-.66,91.67,10,92.67,22.34-5,22.34-5-.76-11.48-2.75-26c-1.67-12.15-4.49-26.43-5.59-38-1.27-13.32,6-50,1.34-53.67S330,139.94,330,139.94Z" style="fill:#B757C2"></path><path d="M330,139.94s-9,5-10,36.66-.66,91.67,10,92.67,22.34-5,22.34-5-.76-11.48-2.75-26c-1.67-12.15-4.49-26.43-5.59-38-1.27-13.32,6-50,1.34-53.67S330,139.94,330,139.94Z" style="fill:#fff;opacity:0.8"></path><path d="M325.33,224.27h15a0,0,0,0,1,0,0v1.89a3.27,3.27,0,0,1-3.27,3.27H328.6a3.27,3.27,0,0,1-3.27-3.27v-1.89A0,0,0,0,1,325.33,224.27Z" transform="translate(-28.9 49.69) rotate(-8.18)" style="fill:#B757C2"></path><path d="M325.33,224.27h15a0,0,0,0,1,0,0v1.89a3.27,3.27,0,0,1-3.27,3.27H328.6a3.27,3.27,0,0,1-3.27-3.27v-1.89A0,0,0,0,1,325.33,224.27Z" transform="translate(-28.9 49.69) rotate(-8.18)" style="fill:#fff;opacity:0.6000000000000001"></path><path d="M318.2,214.73H297a1.67,1.67,0,0,1-1.62-1.47l-3.43-32.57a1.3,1.3,0,0,1,1.32-1.46h21.23a1.66,1.66,0,0,1,1.62,1.46l3.42,32.57A1.29,1.29,0,0,1,318.2,214.73Z" style="fill:#263238"></path><path d="M318.2,214.73H297a1.67,1.67,0,0,1-1.62-1.47l-3.43-32.57a1.3,1.3,0,0,1,1.32-1.46h21.23a1.66,1.66,0,0,1,1.62,1.46l3.42,32.57A1.29,1.29,0,0,1,318.2,214.73Z" style="fill:#fff;opacity:0.5"></path><path d="M306.67,181.81h-5.09a2.08,2.08,0,0,1-2-1.83l-.32-3H308l.32,3A1.62,1.62,0,0,1,306.67,181.81Z" style="fill:#263238"></path><path d="M306.67,181.81h-5.09a2.08,2.08,0,0,1-2-1.83l-.32-3H308l.32,3A1.62,1.62,0,0,1,306.67,181.81Z" style="fill:#fff;opacity:0.7000000000000001"></path><path d="M315.47,179.23h-1a1.66,1.66,0,0,1,1.62,1.46l3.42,32.57a1.29,1.29,0,0,1-1.31,1.47h1a1.29,1.29,0,0,0,1.31-1.47l-3.42-32.57A1.66,1.66,0,0,0,315.47,179.23Z" style="fill:#263238"></path><path d="M315.47,179.23h-1a1.66,1.66,0,0,1,1.62,1.46l3.42,32.57a1.29,1.29,0,0,1-1.31,1.47h1a1.29,1.29,0,0,0,1.31-1.47l-3.42-32.57A1.66,1.66,0,0,0,315.47,179.23Z" style="fill:#fff;opacity:0.7000000000000001"></path><path d="M337.71,192.71l-11.83,2.67-5.24-3.12a3.07,3.07,0,0,0-2-.39l-4.26.62a3,3,0,0,0-2.23,1.56l-1,1.74a3,3,0,0,0-.32,2l.33,2a3,3,0,0,0,2.27,2.45l7.19,1.78a3,3,0,0,0,1.71-.07l5-1.69,14.33-1.67Z" style="fill:#B757C2"></path><path d="M337.71,192.71l-11.83,2.67-5.24-3.12a3.07,3.07,0,0,0-2-.39l-4.26.62a3,3,0,0,0-2.23,1.56l-1,1.74a3,3,0,0,0-.32,2l.33,2a3,3,0,0,0,2.27,2.45l7.19,1.78a3,3,0,0,0,1.71-.07l5-1.69,14.33-1.67Z" style="fill:#fff;opacity:0.30000000000000004"></path><path d="M337.69,200.38a2.92,2.92,0,0,0,3.12,2.08c3.75-.39,10.82-1.84,15.91-7.11,7.25-7.5-2.81-36.1-6.75-43.25-4.4-8-11.22-9.15-11.22-9.15-8.78-3-7.53,5.15-5,15.15s12,24.5,12.25,27.25c.16,1.77-5.25,3.84-9.14,5.1a2.93,2.93,0,0,0-1.63,4.28A24.87,24.87,0,0,1,337.69,200.38Z" style="fill:#B757C2"></path><path d="M337.69,200.38a2.92,2.92,0,0,0,3.12,2.08c3.75-.39,10.82-1.84,15.91-7.11,7.25-7.5-2.81-36.1-6.75-43.25-4.4-8-11.22-9.15-11.22-9.15-8.78-3-7.53,5.15-5,15.15s12,24.5,12.25,27.25c.16,1.77-5.25,3.84-9.14,5.1a2.93,2.93,0,0,0-1.63,4.28A24.87,24.87,0,0,1,337.69,200.38Z" style="fill:#fff;opacity:0.6000000000000001"></path><path d="M250.82,140.62h-4a2.2,2.2,0,0,0-2.19,2.2v0a2.19,2.19,0,0,0,1.18,1.94v35.35a2.52,2.52,0,0,0,2.52,2.52h1a2.52,2.52,0,0,0,2.52-2.52V144.79a2.19,2.19,0,0,0,1.18-1.94v0A2.2,2.2,0,0,0,250.82,140.62Z" style="fill:#B757C2"></path><path d="M250.82,140.62h-4a2.2,2.2,0,0,0-2.19,2.2v0a2.19,2.19,0,0,0,1.18,1.94v35.35a2.52,2.52,0,0,0,2.52,2.52h1a2.52,2.52,0,0,0,2.52-2.52V144.79a2.19,2.19,0,0,0,1.18-1.94v0A2.2,2.2,0,0,0,250.82,140.62Z" style="fill:#fff;opacity:0.6000000000000001"></path><path d="M245.45,141.1a10.19,10.19,0,0,0,6.72,0,2.2,2.2,0,0,0-1.35-.48h-4A2.2,2.2,0,0,0,245.45,141.1Z" style="fill:#B757C2"></path><path d="M248.81,161.39c-1,0-1.88-.27-1.9-.6v19.35a1.4,1.4,0,0,0,1.4,1.4h1a1.4,1.4,0,0,0,1.4-1.4V160.79C250.69,161.12,249.85,161.39,248.81,161.39Z" style="fill:#B757C2"></path><path d="M250.71,160.78c0,.34-.85.61-1.9.61s-1.9-.27-1.9-.61.85-.61,1.9-.61S250.71,160.44,250.71,160.78Z" style="fill:#B757C2"></path><path d="M250.71,160.78c0,.34-.85.61-1.9.61s-1.9-.27-1.9-.61.85-.61,1.9-.61S250.71,160.44,250.71,160.78Z" style="opacity:0.30000000000000004"></path><g style="opacity:0.8"><path d="M246.89,145v35.1a.56.56,0,0,0,1.12,0V145a.56.56,0,0,0-1.12,0Z" style="fill:#fff"></path></g><path d="M307,124.77a6.09,6.09,0,0,0,3.9-2.81.23.23,0,0,0-.09-.29.21.21,0,0,0-.28.09,5.84,5.84,0,0,1-4.39,2.74.22.22,0,1,0,0,.43h0A7.43,7.43,0,0,0,307,124.77Z" style="fill:#263238"></path></g><g id="freepik--Desk--inject-99"><path d="M266.64,199.31h1.72a1.87,1.87,0,0,1,1.87,1.87v17.89a0,0,0,0,1,0,0h-5.46a0,0,0,0,1,0,0V201.18A1.87,1.87,0,0,1,266.64,199.31Z" transform="translate(123.14 -98.18) rotate(26.82)" style="fill:#263238"></path><path d="M266.64,199.31h1.72a1.87,1.87,0,0,1,1.87,1.87v17.89a0,0,0,0,1,0,0h-5.46a0,0,0,0,1,0,0V201.18A1.87,1.87,0,0,1,266.64,199.31Z" transform="translate(123.14 -98.18) rotate(26.82)" style="fill:#fff;opacity:0.30000000000000004"></path><rect x="264.96" y="221.03" width="5.08" height="49.47" style="fill:#B757C2"></rect><rect x="251.33" y="221.03" width="5.08" height="5.58" style="fill:#B757C2"></rect><rect x="264.96" y="221.03" width="5.08" height="49.47" style="opacity:0.2"></rect><rect x="251.33" y="221.03" width="5.08" height="5.58" style="opacity:0.2"></rect><rect x="254.13" y="212.86" width="4.06" height="8.17" style="fill:#B757C2"></rect><rect x="254.13" y="212.86" width="4.06" height="8.17" style="opacity:0.1"></rect><path d="M276.38,221H258.19v-8.17l16.14,3.46a2.59,2.59,0,0,1,2.05,2.54Z" style="fill:#B757C2"></path><path d="M276.38,221H258.19v-8.17l16.14,3.46a2.59,2.59,0,0,1,2.05,2.54Z" style="fill:#fff;opacity:0.2"></path><path d="M257.22,229.86l-5.79-2.71a.28.28,0,0,1,.12-.54h13.27a.28.28,0,0,1,.12.54l-5.78,2.71A2.27,2.27,0,0,1,257.22,229.86Z" style="fill:#263238"></path><rect x="254.35" y="230.06" width="7.67" height="5.19" rx="2.14" transform="translate(25.53 490.84) rotate(-90)" style="fill:#263238"></rect><rect x="254.35" y="230.06" width="7.67" height="5.19" rx="2.14" transform="translate(25.53 490.84) rotate(-90)" style="fill:#fff;opacity:0.6000000000000001"></rect><rect x="248.9" y="228.95" width="7.67" height="5.19" rx="2.14" transform="translate(-57.9 376.44) rotate(-67.5)" style="fill:#263238"></rect><rect x="259.8" y="228.95" width="7.67" height="5.19" rx="2.14" transform="translate(150.6 563.72) rotate(-112.5)" style="fill:#263238"></rect><g style="opacity:0.30000000000000004"><rect x="248.9" y="228.95" width="7.67" height="5.19" rx="2.14" transform="translate(-57.9 376.44) rotate(-67.5)" style="fill:#fff"></rect><rect x="259.8" y="228.95" width="7.67" height="5.19" rx="2.14" transform="translate(150.6 563.72) rotate(-112.5)" style="fill:#fff"></rect></g><path d="M270,270.5h17.18a2.35,2.35,0,0,0,2.29-2.85l-10-44.72a2.42,2.42,0,0,0-2.37-1.9H256.41v5.58H270Z" style="fill:#B757C2"></path><path d="M270,270.5h17.18a2.35,2.35,0,0,0,2.29-2.85l-10-44.72a2.42,2.42,0,0,0-2.37-1.9H256.41v5.58H270Z" style="fill:#fff;opacity:0.30000000000000004"></path><rect x="240.35" y="246.55" width="20.6" height="4.01" style="fill:#263238"></rect><rect x="260.95" y="246.55" width="20.6" height="4.01" style="fill:#263238"></rect><rect x="240.35" y="246.55" width="20.6" height="4.01" style="fill:#fff;opacity:0.7000000000000001"></rect><rect x="260.95" y="246.55" width="20.6" height="4.01" style="fill:#fff;opacity:0.30000000000000004"></rect><path d="M321.59,250.79a13.42,13.42,0,0,0-10-11v-15a2.76,2.76,0,0,0,2.11-2.67v0a2.76,2.76,0,0,0-2.76-2.75h-5a2.75,2.75,0,0,0-2.75,2.75v0a2.75,2.75,0,0,0,2.11,2.67v15a13.35,13.35,0,0,0-4.57,23.85,5.28,5.28,0,0,0,3,.95h9.41a5.23,5.23,0,0,0,3-.94A13.37,13.37,0,0,0,321.59,250.79Z" style="fill:#B757C2"></path><path d="M321.59,250.79a13.42,13.42,0,0,0-10-11v-15a2.76,2.76,0,0,0,2.11-2.67v0a2.76,2.76,0,0,0-2.76-2.75h-5a2.75,2.75,0,0,0-2.75,2.75v0a2.75,2.75,0,0,0,2.11,2.67v15a13.35,13.35,0,0,0-4.57,23.85,5.28,5.28,0,0,0,3,.95h9.41a5.23,5.23,0,0,0,3-.94A13.37,13.37,0,0,0,321.59,250.79Z" style="fill:#B757C2"></path><path d="M321.59,250.79a13.42,13.42,0,0,0-10-11v-15a2.76,2.76,0,0,0,2.11-2.67v0a2.76,2.76,0,0,0-2.76-2.75h-5a2.75,2.75,0,0,0-2.75,2.75v0a2.75,2.75,0,0,0,2.11,2.67v15a13.35,13.35,0,0,0-4.57,23.85,5.28,5.28,0,0,0,3,.95h9.41a5.23,5.23,0,0,0,3-.94A13.37,13.37,0,0,0,321.59,250.79Z" style="fill:#fff;opacity:0.7000000000000001"></path><path d="M304.16,219.94c.5.41,2.19.71,4.21.71s3.71-.3,4.22-.71a2.73,2.73,0,0,0-1.7-.6h-5A2.72,2.72,0,0,0,304.16,219.94Z" style="fill:#B757C2"></path><path d="M320.2,251a11.5,11.5,0,0,0-1.59-4.31c-.14.76-4.66,1.37-10.24,1.37s-10.16-.61-10.24-1.38a11.81,11.81,0,0,0-1.7,6.1,12,12,0,0,0,5,9.74,3.81,3.81,0,0,0,2.21.69h9.41a3.7,3.7,0,0,0,2.19-.68A12,12,0,0,0,320.2,251Z" style="fill:#B757C2"></path><path d="M318.63,246.65c0,.78-4.59,1.4-10.26,1.4s-10.25-.62-10.25-1.4,4.59-1.41,10.25-1.41S318.63,245.87,318.63,246.65Z" style="fill:#B757C2"></path><path d="M318.63,246.65c0,.78-4.59,1.4-10.26,1.4s-10.25-.62-10.25-1.4,4.59-1.41,10.25-1.41S318.63,245.87,318.63,246.65Z" style="opacity:0.2"></path><path d="M297.73,253.09s2.37,9,6.13,8.4S301.18,257.94,297.73,253.09Z" style="fill:#fff;opacity:0.5"></path><path d="M324.85,269.77,320.41,259H322a.91.91,0,0,0,.91-.91v-.35a.91.91,0,0,0-.91-.91H294.82a.91.91,0,0,0-.91.91v.35a.91.91,0,0,0,.91.91h1.59L292,269.79c-.19.44.16.63.61.81s.82.3,1-.14L298.31,259h9.22v11.21c0,.48.39.52.88.52s.87,0,.87-.52V259h9.23l4.73,11.4c.18.44.56.33,1,.14S325,270.21,324.85,269.77Z" style="fill:#263238"></path><path d="M324.79,269.77,320.35,259h1.58a.91.91,0,0,0,.91-.91v-.35a.91.91,0,0,0-.91-.91H294.75a.91.91,0,0,0-.91.91v.35a.91.91,0,0,0,.91.91h1.59l-4.45,10.75c-.18.44.17.63.61.81s.83.3,1-.14L298.24,259h9.22v11.21c0,.48.4.52.88.52s.88,0,.88-.52V259h9.23l4.72,11.4c.19.44.56.33,1,.14S325,270.21,324.79,269.77Z" style="fill:#fff;opacity:0.4"></path><polygon points="195.23 278.21 195.23 411.56 191.97 411.56 189.07 284.31 185.23 284.31 185.23 278.21 195.23 278.21" style="fill:#B757C2"></polygon><polygon points="192.34 411.55 189.23 411.55 185.23 278.22 189.34 278.22 192.34 411.55" style="fill:#B757C2"></polygon><polygon points="195.23 278.21 195.23 411.56 191.97 411.56 189.07 284.31 185.23 284.31 185.23 278.21 195.23 278.21" style="fill:#fff;opacity:0.30000000000000004"></polygon><polygon points="390.8 411.55 387.7 411.55 383.7 278.22 387.8 278.22 390.8 411.55" style="fill:#B757C2"></polygon><polygon points="390.8 411.55 387.7 411.55 383.7 278.22 387.8 278.22 390.8 411.55" style="fill:#fff;opacity:0.30000000000000004"></polygon><polygon points="340.7 278.22 340.7 411.55 343.99 411.55 347.86 284.31 387.54 284.31 390.44 411.55 393.7 411.55 393.7 278.22 340.7 278.22" style="fill:#B757C2"></polygon><polygon points="340.7 278.22 340.7 411.55 343.99 411.55 347.86 284.31 387.54 284.31 390.44 411.55 393.7 411.55 393.7 278.22 340.7 278.22" style="fill:#fff;opacity:0.5"></polygon><polygon points="340.7 411.55 337.59 411.55 336.59 278.22 340.7 278.22 340.7 411.55" style="fill:#B757C2"></polygon><polygon points="340.7 411.55 337.59 411.55 336.59 278.22 340.7 278.22 340.7 411.55" style="fill:#fff;opacity:0.30000000000000004"></polygon><polygon points="185.03 278.21 185.03 284.31 149.19 284.31 145.32 411.56 142.03 411.56 142.03 278.21 185.03 278.21" style="fill:#B757C2"></polygon><polygon points="185.03 278.21 185.03 284.31 149.19 284.31 145.32 411.56 142.03 411.56 142.03 278.21 185.03 278.21" style="fill:#fff;opacity:0.30000000000000004"></polygon><polygon points="185.03 278.21 185.03 284.31 149.19 284.31 145.32 411.56 142.03 411.56 142.03 278.21 185.03 278.21" style="fill:none;opacity:0.30000000000000004"></polygon><polygon points="142.03 411.55 138.92 411.55 137.92 278.22 142.03 278.22 142.03 411.55" style="fill:#B757C2"></polygon><rect x="132.49" y="270.55" width="205.65" height="7.67" style="fill:#B757C2"></rect><rect x="132.49" y="270.55" width="205.65" height="7.67" style="fill:#fff;opacity:0.6000000000000001"></rect><rect x="333.36" y="270.55" width="65.78" height="7.67" style="fill:#B757C2"></rect><rect x="333.36" y="270.55" width="65.78" height="7.67" style="fill:#fff;opacity:0.8"></rect><path d="M348.58,232.27h-3.23a1.76,1.76,0,0,0-1.76,1.76v0a1.74,1.74,0,0,0,1,1.55V264a2,2,0,0,0,2,2h.79a2,2,0,0,0,2-2v-28.4a1.74,1.74,0,0,0,.95-1.55v0A1.76,1.76,0,0,0,348.58,232.27Z" style="fill:#B757C2"></path><path d="M348.58,232.27h-3.23a1.76,1.76,0,0,0-1.76,1.76v0a1.74,1.74,0,0,0,1,1.55V264a2,2,0,0,0,2,2h.79a2,2,0,0,0,2-2v-28.4a1.74,1.74,0,0,0,.95-1.55v0A1.76,1.76,0,0,0,348.58,232.27Z" style="fill:#fff;opacity:0.6000000000000001"></path><path d="M344.27,232.65a8.12,8.12,0,0,0,5.39,0,1.77,1.77,0,0,0-1.08-.38h-3.23A1.77,1.77,0,0,0,344.27,232.65Z" style="fill:#B757C2"></path><path d="M347,249c-.84,0-1.51-.22-1.53-.48V264a1.14,1.14,0,0,0,1.13,1.13h.79a1.14,1.14,0,0,0,1.13-1.13V248.47C348.47,248.73,347.8,249,347,249Z" style="fill:#B757C2"></path><path d="M348.49,248.46c0,.27-.68.49-1.52.49s-1.53-.22-1.53-.49.68-.49,1.53-.49S348.49,248.19,348.49,248.46Z" style="fill:#B757C2"></path><path d="M348.49,248.46c0,.27-.68.49-1.52.49s-1.53-.22-1.53-.49.68-.49,1.53-.49S348.49,248.19,348.49,248.46Z" style="opacity:0.30000000000000004"></path><g style="opacity:0.8"><path d="M345.42,235.82V264a.45.45,0,0,0,.9,0V235.82a.45.45,0,0,0-.9,0Z" style="fill:#fff"></path></g><path d="M361,232.27h-3.23a1.76,1.76,0,0,0-1.76,1.76v0a1.74,1.74,0,0,0,.95,1.55V264a2,2,0,0,0,2,2h.8a2,2,0,0,0,2-2v-28.4a1.74,1.74,0,0,0,.95-1.55v0A1.76,1.76,0,0,0,361,232.27Z" style="fill:#B757C2"></path><path d="M361,232.27h-3.23a1.76,1.76,0,0,0-1.76,1.76v0a1.74,1.74,0,0,0,.95,1.55V264a2,2,0,0,0,2,2h.8a2,2,0,0,0,2-2v-28.4a1.74,1.74,0,0,0,.95-1.55v0A1.76,1.76,0,0,0,361,232.27Z" style="fill:#fff;opacity:0.6000000000000001"></path><path d="M356.73,232.65a5.65,5.65,0,0,0,2.7.46,5.71,5.71,0,0,0,2.7-.46,1.8,1.8,0,0,0-1.09-.38h-3.23A1.77,1.77,0,0,0,356.73,232.65Z" style="fill:#B757C2"></path><path d="M359.43,243.44c-.84,0-1.51-.22-1.53-.48v21a1.14,1.14,0,0,0,1.13,1.13h.8A1.13,1.13,0,0,0,361,264V243C360.93,243.22,360.26,243.44,359.43,243.44Z" style="fill:#B757C2"></path><path d="M361,243c0,.27-.69.49-1.53.49s-1.53-.22-1.53-.49.68-.49,1.53-.49S361,242.68,361,243Z" style="fill:#B757C2"></path><path d="M361,243c0,.27-.69.49-1.53.49s-1.53-.22-1.53-.49.68-.49,1.53-.49S361,242.68,361,243Z" style="opacity:0.30000000000000004"></path><g style="opacity:0.8"><path d="M357.88,235.82V264a.45.45,0,0,0,.9,0V235.82a.45.45,0,0,0-.9,0Z" style="fill:#fff"></path></g><path d="M373.5,232.27h-3.22a1.76,1.76,0,0,0-1.77,1.76v0a1.74,1.74,0,0,0,.95,1.55V264a2,2,0,0,0,2,2h.8a2,2,0,0,0,2-2v-28.4a1.74,1.74,0,0,0,.95-1.55v0A1.76,1.76,0,0,0,373.5,232.27Z" style="fill:#B757C2"></path><path d="M373.5,232.27h-3.22a1.76,1.76,0,0,0-1.77,1.76v0a1.74,1.74,0,0,0,.95,1.55V264a2,2,0,0,0,2,2h.8a2,2,0,0,0,2-2v-28.4a1.74,1.74,0,0,0,.95-1.55v0A1.76,1.76,0,0,0,373.5,232.27Z" style="fill:#fff;opacity:0.6000000000000001"></path><path d="M369.19,232.65a5.65,5.65,0,0,0,2.7.46,5.71,5.71,0,0,0,2.7-.46,1.8,1.8,0,0,0-1.09-.38h-3.22A1.78,1.78,0,0,0,369.19,232.65Z" style="fill:#B757C2"></path><path d="M371.89,249c-.84,0-1.51-.22-1.53-.48V264a1.14,1.14,0,0,0,1.13,1.13h.8a1.13,1.13,0,0,0,1.12-1.13V248.47C373.4,248.73,372.72,249,371.89,249Z" style="fill:#B757C2"></path><path d="M373.42,248.46c0,.27-.69.49-1.53.49s-1.53-.22-1.53-.49.68-.49,1.53-.49S373.42,248.19,373.42,248.46Z" style="fill:#B757C2"></path><path d="M373.42,248.46c0,.27-.69.49-1.53.49s-1.53-.22-1.53-.49.68-.49,1.53-.49S373.42,248.19,373.42,248.46Z" style="opacity:0.30000000000000004"></path><g style="opacity:0.8"><path d="M370.34,235.82V264a.45.45,0,0,0,.9,0V235.82a.45.45,0,0,0-.9,0Z" style="fill:#fff"></path></g><path d="M381.53,239.84a1,1,0,0,0,1-1v-1a1,1,0,0,0-1-1h-56a1,1,0,0,0-1,1v1a1,1,0,0,0,1,1h1.58v28h-1.58a1,1,0,0,0-1,1v1a1,1,0,0,0,1,1h56a1,1,0,0,0,1-1v-1a1,1,0,0,0-1-1H380v-28Zm-4.13,28H329.61v-28H377.4Z" style="fill:#263238"></path><path d="M381.53,239.84a1,1,0,0,0,1-1v-1a1,1,0,0,0-1-1h-56a1,1,0,0,0-1,1v1a1,1,0,0,0,1,1h1.58v28h-1.58a1,1,0,0,0-1,1v1a1,1,0,0,0,1,1h56a1,1,0,0,0,1-1v-1a1,1,0,0,0-1-1H380v-28Zm-4.13,28H329.61v-28H377.4Z" style="fill:#fff;opacity:0.4"></path><path d="M204.63,269.55c0,.05,0,.1,0,.15a1.1,1.1,0,0,1-1.1,1.08l-27.74-.34a1.09,1.09,0,0,1-1.06-1,.61.61,0,0,1,0-.14,1.09,1.09,0,0,1,.73-1h0a1.06,1.06,0,0,1,.35-.05l27.74.33a1,1,0,0,1,.94.58A1,1,0,0,1,204.63,269.55Z" style="fill:#B757C2"></path><path d="M202.54,270.78l49.31-.34a1.08,1.08,0,0,0,1.08-1.09h0a1.1,1.1,0,0,0-1.09-1.08l-49.31.34a1.1,1.1,0,0,0-1.08,1.09h0A1.1,1.1,0,0,0,202.54,270.78Z" style="fill:#B757C2"></path><path d="M202.54,270.78l49.31-.34a1.08,1.08,0,0,0,1.08-1.09h0a1.1,1.1,0,0,0-1.09-1.08l-49.31.34a1.1,1.1,0,0,0-1.08,1.09h0A1.1,1.1,0,0,0,202.54,270.78Z" style="opacity:0.5"></path><path d="M255.46,237.57l-2.22,27.24a3.85,3.85,0,0,1-2.84,3.35,3.18,3.18,0,0,1-.76.13h-.13l-45.41.31H204a3.11,3.11,0,0,1-3.11-3.43l2.22-27.24a3.84,3.84,0,0,1,3.73-3.47h.69l44.72-.32A3.12,3.12,0,0,1,255.46,237.57Z" style="fill:#B757C2"></path><path d="M253.87,234l-45.41.32a3.42,3.42,0,0,0-.89.13,3.84,3.84,0,0,0-2.84,3.34l-2.21,27.25a3.1,3.1,0,0,0,3.17,3.43l44.71-.32h.69a3.83,3.83,0,0,0,3.73-3.47L257,237.44A3.12,3.12,0,0,0,253.87,234Z" style="fill:#B757C2"></path><path d="M253.87,234l-45.41.32a3.42,3.42,0,0,0-.89.13,3.84,3.84,0,0,0-2.84,3.34l-2.21,27.25a3.1,3.1,0,0,0,3.17,3.43l44.71-.32h.69a3.83,3.83,0,0,0,3.73-3.47L257,237.44A3.12,3.12,0,0,0,253.87,234Z" style="fill:#fff;opacity:0.2"></path><path d="M231.29,253.24a2,2,0,0,0,2,2,1.92,1.92,0,0,0,.92-.22,2.53,2.53,0,0,1-.67.54,2.72,2.72,0,1,1,0-4.71,2.86,2.86,0,0,1,.82.73l-.08,0a1.86,1.86,0,0,0-1-.27A2,2,0,0,0,231.29,253.24Z" style="fill:#fff"></path><polygon points="143.95 276.06 143.9 276.08 143.85 276.06 143.9 276.05 143.95 276.06" style="fill:#f0f0f0"></polygon></g></svg>