<svg xmlns="http://www.w3.org/2000/svg" viewBox="0 0 500 500"><g id="freepik--Audience--inject-220"><g id="freepik--Arena--inject-220"><g id="freepik--People--inject-220" style="opacity:0.6000000000000001"><circle cx="375.06" cy="74.56" r="6.28" style="fill:#e6e6e6"></circle><path d="M312.51,50.52a6.28,6.28,0,1,1-6.28-6.28A6.28,6.28,0,0,1,312.51,50.52Z" style="fill:#f0f0f0"></path><path d="M379.9,93.39a6.28,6.28,0,1,1-6.27-6.27A6.28,6.28,0,0,1,379.9,93.39Z" style="fill:#f0f0f0"></path><path d="M365.76,141.91a6.28,6.28,0,1,1-6.28-6.28A6.28,6.28,0,0,1,365.76,141.91Z" style="fill:#f0f0f0"></path><circle cx="400.55" cy="114.64" r="6.28" style="fill:#f5f5f5"></circle><path d="M409.06,80.84a6.28,6.28,0,1,1-6.28-6.28A6.28,6.28,0,0,1,409.06,80.84Z" style="fill:#f0f0f0"></path><path d="M323.07,87.12a6.28,6.28,0,1,1-6.28-6.28A6.28,6.28,0,0,1,323.07,87.12Z" style="fill:#f0f0f0"></path><circle cx="385.76" cy="144.99" r="6.28" style="fill:#e6e6e6"></circle><path d="M409.06,142.1a6.28,6.28,0,1,1-6.28-6.28A6.28,6.28,0,0,1,409.06,142.1Z" style="fill:#f0f0f0"></path><circle cx="372.9" cy="124.09" r="6.28" style="fill:#f0f0f0"></circle><path d="M363.4,107.11a6.28,6.28,0,1,1-6.28-6.28A6.28,6.28,0,0,1,363.4,107.11Z" style="fill:#f0f0f0"></path><path d="M347.65,128.37a6.28,6.28,0,1,1-6.28-6.28A6.28,6.28,0,0,1,347.65,128.37Z" style="fill:#f5f5f5"></path><circle cx="314.5" cy="129.97" r="6.28" style="fill:#f0f0f0"></circle><path d="M348.49,87.12a6.28,6.28,0,1,1-6.28-6.28A6.28,6.28,0,0,1,348.49,87.12Z" style="fill:#f5f5f5"></path><circle cx="327.91" cy="109.09" r="6.28" style="fill:#e6e6e6"></circle><circle cx="350.33" cy="64.79" r="6.28" style="fill:#f0f0f0"></circle><circle cx="325.37" cy="61.63" r="6.28" style="fill:#f0f0f0"></circle><path d="M424.7,100.83a6.28,6.28,0,1,1-6.28-6.28A6.28,6.28,0,0,1,424.7,100.83Z" style="fill:#f5f5f5"></path><path d="M432.61,128.58a6.28,6.28,0,1,1-6.27-6.28A6.28,6.28,0,0,1,432.61,128.58Z" style="fill:#f0f0f0"></path><path d="M462.62,166.11a6.28,6.28,0,1,1-6.27-6.28A6.28,6.28,0,0,1,462.62,166.11Z" style="fill:#f5f5f5"></path><circle cx="430.95" cy="167.71" r="6.28" style="fill:#f0f0f0"></circle><path d="M462.62,118.46a6.28,6.28,0,1,1-6.27-6.28A6.28,6.28,0,0,1,462.62,118.46Z" style="fill:#f5f5f5"></path><circle cx="448.75" cy="142.86" r="6.28" style="fill:#e6e6e6"></circle><circle cx="439.18" cy="94.75" r="6.28" style="fill:#f0f0f0"></circle><path d="M265.16,73.09a6.28,6.28,0,1,1-6.27-6.28A6.28,6.28,0,0,1,265.16,73.09Z" style="fill:#e6e6e6"></path><path d="M271.44,50.34a6.28,6.28,0,1,1-6.28-6.27A6.28,6.28,0,0,1,271.44,50.34Z" style="fill:#f0f0f0"></path><circle cx="268.27" cy="95.84" r="6.28" style="fill:#f0f0f0"></circle><circle cx="289.69" cy="83.84" r="6.28" style="fill:#f5f5f5"></circle><path d="M289.14,61.19a6.28,6.28,0,1,1-6.28-6.28A6.28,6.28,0,0,1,289.14,61.19Z" style="fill:#f0f0f0"></path><circle cx="280.57" cy="124.77" r="6.28" style="fill:#e6e6e6"></circle><circle cx="297.72" cy="107.45" r="6.28" style="fill:#f0f0f0"></circle><path d="M95.63,83.84a6.28,6.28,0,1,0,5.79-6.73A6.29,6.29,0,0,0,95.63,83.84Z" style="fill:#e6e6e6"></path><path d="M161.61,53.56a6.28,6.28,0,1,0,5.79-6.73A6.27,6.27,0,0,0,161.61,53.56Z" style="fill:#f0f0f0"></path><path d="M88,107.22a6.28,6.28,0,1,0,5.79-6.72A6.27,6.27,0,0,0,88,107.22Z" style="fill:#f0f0f0"></path><path d="M115.29,148.66a6.28,6.28,0,1,0,5.8-6.73A6.29,6.29,0,0,0,115.29,148.66Z" style="fill:#f0f0f0"></path><path d="M72.32,124.52a6.28,6.28,0,1,0,5.79-6.72A6.28,6.28,0,0,0,72.32,124.52Z" style="fill:#f5f5f5"></path><circle cx="73.84" cy="90.51" r="6.28" transform="translate(-18.88 19.47) rotate(-13.33)" style="fill:#f0f0f0"></circle><circle cx="160.05" cy="90.38" r="6.28" transform="translate(-12.87 152.68) rotate(-49.26)" style="fill:#f0f0f0"></circle><circle cx="92.47" cy="151.01" r="6.28" transform="translate(-74.07 211.15) rotate(-78.37)" style="fill:#e6e6e6"></circle><path d="M65.48,153.4a6.28,6.28,0,1,0,5.79-6.73A6.27,6.27,0,0,0,65.48,153.4Z" style="fill:#f0f0f0"></path><circle cx="106.85" cy="131.42" r="6.28" transform="translate(-39.94 46.92) rotate(-20.96)" style="fill:#f0f0f0"></circle><path d="M115.06,113.78a6.28,6.28,0,1,0,5.79-6.73A6.27,6.27,0,0,0,115.06,113.78Z" style="fill:#f0f0f0"></path><circle cx="138.61" cy="133.35" r="6.28" transform="translate(-27.02 35.56) rotate(-13.33)" style="fill:#f5f5f5"></circle><path d="M159.27,133.4a6.28,6.28,0,1,0,5.79-6.72A6.28,6.28,0,0,0,159.27,133.4Z" style="fill:#f0f0f0"></path><circle cx="134.71" cy="92.27" r="6.28" transform="translate(-23.11 134.13) rotate(-49.26)" style="fill:#f5f5f5"></circle><path d="M144.34,113.58a6.28,6.28,0,1,0,5.8-6.72A6.28,6.28,0,0,0,144.34,113.58Z" style="fill:#e6e6e6"></path><path d="M118.69,71.08a6.28,6.28,0,1,0,5.8-6.73A6.28,6.28,0,0,0,118.69,71.08Z" style="fill:#f0f0f0"></path><circle cx="149.61" cy="65.6" r="6.28" transform="translate(-13.03 50.31) rotate(-18.31)" style="fill:#f0f0f0"></circle><circle cx="61.25" cy="114.87" r="6.28" transform="translate(-65.76 86.32) rotate(-49.26)" style="fill:#f5f5f5"></circle><circle cx="57.63" cy="137.7" r="6.28" transform="translate(-45.45 29.73) rotate(-20.96)" style="fill:#f0f0f0"></circle><circle cx="33.04" cy="186.65" r="6.28" transform="translate(-129.96 89.89) rotate(-49.26)" style="fill:#f5f5f5"></circle><circle cx="51.35" cy="173.93" r="6.28" transform="translate(-113.95 99.34) rotate(-49.26)" style="fill:#f0f0f0"></circle><circle cx="38.88" cy="124.77" r="6.28" transform="translate(-42.06 22.17) rotate(-20.96)" style="fill:#f5f5f5"></circle><path d="M26.35,156.25a6.28,6.28,0,1,0,5.79-6.73A6.27,6.27,0,0,0,26.35,156.25Z" style="fill:#e6e6e6"></path><circle cx="45.16" cy="103.11" r="6.28" transform="translate(-62.41 136.25) rotate(-83.47)" style="fill:#f0f0f0"></circle><path d="M202.83,90.59a6.28,6.28,0,1,0,5.8-6.73A6.28,6.28,0,0,0,202.83,90.59Z" style="fill:#f0f0f0"></path><circle cx="185.6" cy="92.05" r="6.28" transform="translate(-16.22 45.29) rotate(-13.33)" style="fill:#f5f5f5"></circle><path d="M181.48,66.8a6.28,6.28,0,1,0,5.79-6.73A6.28,6.28,0,0,0,181.48,66.8Z" style="fill:#f0f0f0"></path><path d="M180.07,132.38a6.28,6.28,0,1,0,5.8-6.73A6.29,6.29,0,0,0,180.07,132.38Z" style="fill:#f0f0f0"></path><path d="M261.67,118.5a6.28,6.28,0,1,1-6.28-6.28A6.28,6.28,0,0,1,261.67,118.5Z" style="fill:#f0f0f0"></path><path d="M250.55,98.11a6.28,6.28,0,1,1-6.27-6.28A6.28,6.28,0,0,1,250.55,98.11Z" style="fill:#f0f0f0"></path><path d="M234.94,124.77a6.28,6.28,0,1,1-6.28-6.27A6.28,6.28,0,0,1,234.94,124.77Z" style="fill:#f5f5f5"></path><circle cx="212.52" cy="114.1" r="6.28" style="fill:#f0f0f0"></circle><path d="M234.94,78.25A6.28,6.28,0,1,1,228.66,72,6.28,6.28,0,0,1,234.94,78.25Z" style="fill:#f5f5f5"></path><circle cx="234.94" cy="54.32" r="6.28" style="fill:#f0f0f0"></circle><circle cx="212.52" cy="54.7" r="6.28" style="fill:#f0f0f0"></circle></g><g id="freepik--Stadium--inject-220"><g id="freepik--Puck--inject-220"><path d="M35.34,101.62a1.28,1.28,0,0,0-.75-1.05,4,4,0,0,0-3.64,0,1.27,1.27,0,0,0-.76,1.05v163a1.27,1.27,0,0,0,.76,1.05,4,4,0,0,0,3.64,0,1.28,1.28,0,0,0,.75-1.05Z" style="fill:#ebebeb"></path><path d="M31,100.57a1.27,1.27,0,0,0-.76,1.05,1.3,1.3,0,0,0,.76,1.06,4,4,0,0,0,3.64,0,1.3,1.3,0,0,0,.75-1.06,1.28,1.28,0,0,0-.75-1.05A4,4,0,0,0,31,100.57Z" style="fill:#f0f0f0"></path></g><g id="freepik--puck--inject-220"><path d="M116.38,52.88a1.3,1.3,0,0,0-.75-1.06,4,4,0,0,0-3.65,0,1.3,1.3,0,0,0-.75,1.06v163a1.29,1.29,0,0,0,.75,1.06,4,4,0,0,0,3.65,0,1.29,1.29,0,0,0,.75-1.06Z" style="fill:#ebebeb"></path><path d="M112,51.82a1.3,1.3,0,0,0-.75,1.06,1.28,1.28,0,0,0,.75,1,4,4,0,0,0,3.65,0,1.28,1.28,0,0,0,.75-1,1.3,1.3,0,0,0-.75-1.06A4,4,0,0,0,112,51.82Z" style="fill:#f0f0f0"></path></g><g id="freepik--puck--inject-220"><path d="M202.44,29.73a1.27,1.27,0,0,0-.76-1.05,4,4,0,0,0-3.64,0,1.29,1.29,0,0,0-.76,1.05v163a1.29,1.29,0,0,0,.76,1.05,4,4,0,0,0,3.64,0,1.27,1.27,0,0,0,.76-1.05Z" style="fill:#ebebeb"></path><path d="M198,28.68a1.29,1.29,0,0,0-.76,1.05,1.32,1.32,0,0,0,.76,1.06,4,4,0,0,0,3.64,0,1.3,1.3,0,0,0,.76-1.06,1.27,1.27,0,0,0-.76-1.05A4,4,0,0,0,198,28.68Z" style="fill:#f0f0f0"></path></g><g id="freepik--puck--inject-220"><path d="M462,101.62a1.28,1.28,0,0,1,.75-1.05,4,4,0,0,1,3.65,0,1.28,1.28,0,0,1,.75,1.05v163a1.28,1.28,0,0,1-.75,1.05,4,4,0,0,1-3.65,0,1.28,1.28,0,0,1-.75-1.05Z" style="fill:#ebebeb"></path><path d="M466.39,100.57a1.28,1.28,0,0,1,.75,1.05,1.3,1.3,0,0,1-.75,1.06,4,4,0,0,1-3.65,0,1.3,1.3,0,0,1-.75-1.06,1.28,1.28,0,0,1,.75-1.05A4,4,0,0,1,466.39,100.57Z" style="fill:#f0f0f0"></path></g><g id="freepik--puck--inject-220"><path d="M381,52.88a1.3,1.3,0,0,1,.75-1.06,4,4,0,0,1,3.65,0,1.3,1.3,0,0,1,.75,1.06v163a1.29,1.29,0,0,1-.75,1.06,4,4,0,0,1-3.65,0,1.29,1.29,0,0,1-.75-1.06Z" style="fill:#ebebeb"></path><path d="M385.35,51.82a1.3,1.3,0,0,1,.75,1.06,1.28,1.28,0,0,1-.75,1,4,4,0,0,1-3.65,0,1.28,1.28,0,0,1-.75-1,1.3,1.3,0,0,1,.75-1.06A4,4,0,0,1,385.35,51.82Z" style="fill:#f0f0f0"></path></g><g id="freepik--puck--inject-220"><path d="M294.89,29.73a1.29,1.29,0,0,1,.76-1.05,4,4,0,0,1,3.64,0,1.27,1.27,0,0,1,.76,1.05v163a1.27,1.27,0,0,1-.76,1.05,4,4,0,0,1-3.64,0,1.29,1.29,0,0,1-.76-1.05Z" style="fill:#ebebeb"></path><path d="M299.29,28.68a1.27,1.27,0,0,1,.76,1.05,1.3,1.3,0,0,1-.76,1.06,4,4,0,0,1-3.64,0,1.32,1.32,0,0,1-.76-1.06,1.29,1.29,0,0,1,.76-1.05A4,4,0,0,1,299.29,28.68Z" style="fill:#f0f0f0"></path></g><path d="M488.48,227.48c-12.39-18.23-31.82-35.33-58.31-50-99.5-55.11-260.84-55.11-360.34,0-26.49,14.67-45.92,31.77-58.31,50v99.07h477Z" style="fill:#f0f0f0"></path><path d="M488.48,229.53a2,2,0,0,1-1.69-.9c-12.62-18.57-32-35.17-57.61-49.35-98.8-54.72-259.56-54.72-358.36,0-25.61,14.18-45,30.78-57.61,49.35a2,2,0,1,1-3.38-2.31c13-19.1,32.83-36.13,59-50.63,99.89-55.32,262.43-55.31,362.32,0,26.18,14.5,46,31.54,59,50.64a2.05,2.05,0,0,1-1.69,3.2Z" style="fill:#ebebeb"></path><path d="M488.48,135.06a.51.51,0,0,1-.42-.23C475.3,116.06,455.75,99.3,429.92,85c-99.2-54.94-260.63-54.94-359.84,0-25.83,14.3-45.39,31.06-58.14,49.83a.51.51,0,1,1-.84-.58c12.84-18.9,32.51-35.77,58.48-50.15C169.07,29,330.94,29,430.42,84.1c26,14.38,45.64,31.26,58.48,50.16a.51.51,0,0,1-.13.71A.52.52,0,0,1,488.48,135.06Z" style="fill:#e0e0e0"></path></g></g></g><g id="freepik--Floor--inject-220"><g id="freepik--Velodrome--inject-220"><path id="freepik--floor--inject-220" d="M79.08,226.66c-94.39,54.5-94.39,142.86,0,197.36s247.44,54.5,341.83,0,94.39-142.86,0-197.36S173.47,172.16,79.08,226.66Z" style="fill:#ffbda7"></path><path d="M235.29,186.06l-1.89.06,257.74,148.8c0-.36.07-.72.11-1.08Z" style="fill:#fff"></path><path d="M484.15,360q.83-1.86,1.56-3.72l-289.33-167q-3.23.42-6.44.89Z" style="fill:#fff"></path><path d="M10.34,307.2,281.41,463.71c2.34-.18,4.67-.37,7-.59l-277-159.95C11,304.51,10.65,305.86,10.34,307.2Z" style="fill:#BA68C8"></path></g></g><g id="freepik--Shadows--inject-220"><path id="freepik--Shadow--inject-220" d="M236.93,412.18c-72.52-32.94-135.74-69.55-190.72-110.12-5.68-4.72-4.18-9.4.88-12.32S60.62,287,66,290.09L257.12,400.43c5.39,3.11,5.66,8,.6,10.92S244.66,415.2,236.93,412.18Z" style="opacity:0.2"></path><path id="freepik--shadow--inject-220" d="M408.09,410.54c-72.52-33-135.74-69.55-190.72-110.12-5.68-4.72-4.18-9.4.88-12.32s13.52-2.76,18.92.35l191.1,110.34c5.4,3.11,5.67,8,.61,10.92S415.82,413.55,408.09,410.54Z" style="opacity:0.2"></path></g><g id="freepik--character-2--inject-220"><g id="freepik--Character--inject-220"><path d="M344.29,278.11l-7-4a1.46,1.46,0,0,0-1.43,0l-11.14,6.43a1.45,1.45,0,0,0-.72,1.24v2.32a1.42,1.42,0,0,0,.72,1.24l7,4a1.41,1.41,0,0,0,1.43,0l11.12-6.44a1.42,1.42,0,0,0,.71-1.24v-2.32A1.44,1.44,0,0,0,344.29,278.11Z" style="fill:#37474f"></path><path d="M332.45,276.11l-7.69,4.44a1.45,1.45,0,0,0-.72,1.24v2.32a1.42,1.42,0,0,0,.72,1.24l7,4a1.44,1.44,0,0,0,.72.19Z" style="fill:#263238"></path><path d="M337.57,282.83l7.24-4.19a1.39,1.39,0,0,0-.52-.53l-7-4a1.46,1.46,0,0,0-1.43,0l-11.14,6.43a1.39,1.39,0,0,0-.52.53l7.55,4.33a1.37,1.37,0,0,0,1.33,0l4.45-2.58" style="fill:#455a64"></path><polygon points="342.94 282.98 334.88 287.63 334.88 285.15 342.94 280.5 342.94 282.98" style="fill:#BA68C8"></polygon><g id="freepik--leg-2--inject-220"><path d="M342.84,270.07c.19-1.52,1.21-4.55,4.69-11.17s6.73-12.55,9.08-16.74c3.8-6.77,5.45-12.39,3.53-17.33-4.06-10.42-18.32-26.29-20.21-30.85a43.61,43.61,0,0,1-2.23-27.59H296.81a100.36,100.36,0,0,0-1.95,17.74c-.32,16.05,13.17,24.6,26.34,34.12,14.47,10.46,19.09,13.58,19.09,13.58s-4.47,4.24-5.89,13.08-2.2,15.67-2.77,20c-.81,1.71-.29,3.22,3.54,5.06C337.76,271.17,342.84,270.07,342.84,270.07Z" style="fill:#9a4a4d"></path><path d="M360.47,296.25c0,.94-.15,1.56-3.67,2.28s-8.6,0-12.74-1.59-7.36-5.86-8.8-8.74-4.77-5.84-7-7.46-2.67-2.21-2.38-3,1.26-2.75,1.26-2.75Z" style="fill:#ebebeb"></path><path d="M327.29,271.64c.95-2.54,2.19-3.27,2.84-5.33s1.5-1.44,1.5-1.44l-.05,1.3c0,.05.36.28.4.32.31.25.6.52.9.78a10.71,10.71,0,0,0,1.8,1.35,5,5,0,0,0,1,.42,6,6,0,0,1,1.21.25,2.42,2.42,0,0,1,.88.74,3.45,3.45,0,0,1,.14-1.66c.54-1.22,3.78-1,6.12-1.11s1.1,1.38,1.61,3.65,4.29,10.12,5.92,12.61a67.05,67.05,0,0,0,5,5.32c2.47,2.31,3.35,3,4.08,3.65s.67,2.5.09,3.54-7.24,2.86-13.72.45-8-5.49-9.87-9.32A18.69,18.69,0,0,0,331,280a15.23,15.23,0,0,1-4.24-3.84A9.09,9.09,0,0,1,327.29,271.64Z" style="fill:#455a64"></path><path d="M351.54,283.52c-1.63-2.49-5.41-10.34-5.92-12.61s.72-3.75-1.61-3.65-5.58-.11-6.12,1.11.14,4.37,2.11,8.4a40,40,0,0,0,6.27,8.43Z" style="fill:#263238"></path><path d="M359.92,293.58c-1.25.13-2.61.26-2.72.71s-.5,3-1.27,3.72a3.25,3.25,0,0,1-2.76.81,32.73,32.73,0,0,1-8.92-2,16.9,16.9,0,0,1-7.41-6.35c-2.14-3.25-2.42-4.71-5.47-7.4s-4.26-3.2-5.56-4.74a3,3,0,0,0-.24,1.06,2.82,2.82,0,0,0,1.18,1.41,41,41,0,0,1,5.76,4.51,43.83,43.83,0,0,1,3.86,5.77,17.35,17.35,0,0,0,7.76,6.43c3.66,1.44,8.85,2.31,12.42,1.6s3.84-1.38,4.18-1.74a7.69,7.69,0,0,0,.68-3.31C361.28,293.49,360.82,293.48,359.92,293.58Z" style="fill:#263238"></path><path d="M345.35,284.05c2.66-1.33,4.83-1.65,5.73-1.28a2,2,0,0,1,.76,1.1s-1.83-.32-5.57,1.33C346.27,285.2,345.28,285,345.35,284.05Z" style="fill:#fafafa"></path><path d="M349.57,280a14.27,14.27,0,0,0-6.91,1.38,1.28,1.28,0,0,1-.86-1.15s3.88-2.07,7.18-1.38C349,278.83,349.71,279.35,349.57,280Z" style="fill:#fafafa"></path><path d="M347.69,276.13c-1.41-.74-5.95.67-7.37,1.65a1.06,1.06,0,0,1-.85-1.26s3.86-2.52,7.57-1.83C347,274.69,348,275.29,347.69,276.13Z" style="fill:#fafafa"></path><path d="M346.14,272.52c-.72-.24-4.91-.68-7.68,1.17a1.3,1.3,0,0,1-.63-1.29,10.23,10.23,0,0,1,7.85-1.24A2,2,0,0,1,346.14,272.52Z" style="fill:#fafafa"></path><path d="M333.84,227.32c1.76-5.48,9.2-15,19.33-14.61a75.55,75.55,0,0,0-6.74-9.73c-4.74-6-6.66-9.14-8.45-16.29a42.48,42.48,0,0,1,.1-20.3H296.81a59.79,59.79,0,0,0-2.44,18.81c.23,11,6.69,18.17,14.88,24.73S333.84,227.32,333.84,227.32Z" style="fill:#BA68C8"></path><path d="M333.84,227.32c1.76-5.48,9.2-15,19.33-14.61a75.55,75.55,0,0,0-6.74-9.73c-4.74-6-6.66-9.14-8.45-16.29a42.48,42.48,0,0,1,.1-20.3H296.81a59.79,59.79,0,0,0-2.44,18.81c.23,11,6.69,18.17,14.88,24.73S333.84,227.32,333.84,227.32Z" style="fill:#fff;opacity:0.30000000000000004"></path></g><g id="freepik--arm-2--inject-220"><path d="M414.48,237.71c-3.72-.83-5.07-1.89-6.31-3.63a6.6,6.6,0,0,0-2.94-2.29s-1.44-1.5.24-5.27,3.87-3.39,3.87-3.39l5.63,3Z" style="fill:#263238"></path><path d="M362.7,174.78c5.62,4.53,21.35,34.27,21.35,34.27L409.51,223a11.2,11.2,0,0,0-4.06,9.12s-23-7.54-28.29-10c-4.89-2.23-6.88-4.57-9.18-8.66s-18.13-28.59-18.13-28.59Z" style="fill:#37474f"></path><path d="M384.05,209.05s-6.32-11.93-12.37-21.83c-1.84-1.88-3.72-3.2-5.4-3.2l-1.63,8.06s1.57-.28,4.75,2.15,10.59,19.05,12.34,19.68c1.43.51,18.89,9.23,25.07,12.33a11.07,11.07,0,0,1,2.7-3.28Z" style="fill:#BA68C8"></path><path d="M384.05,209.05s-6.32-11.93-12.37-21.83c-1.84-1.88-3.72-3.2-5.4-3.2l-1.63,8.06s1.57-.28,4.75,2.15,10.59,19.05,12.34,19.68c1.43.51,18.89,9.23,25.07,12.33a11.07,11.07,0,0,1,2.7-3.28Z" style="fill:#fff;opacity:0.2"></path></g><g id="freepik--Bike--inject-220"><path d="M376.36,270.44l-6.82-1.09s4.49,20,7.94,33.29c2.88,11,6.21,26.34,7.24,31.11a3.27,3.27,0,0,0,1.34,2.07l.15.09a2.8,2.8,0,0,1,1,1.19l.94,1.88a2.4,2.4,0,0,0,1.41,1.35h0c.71.15,1.15-.54,1-1.59-.75-5.64-3.13-23-5.69-36.11A293.45,293.45,0,0,0,376.36,270.44Z" style="fill:#BA68C8"></path><path d="M376.36,270.44l-6.82-1.09s4.49,20,7.94,33.29c2.88,11,6.21,26.34,7.24,31.11a3.27,3.27,0,0,0,1.34,2.07l.15.09a2.8,2.8,0,0,1,1,1.19l.94,1.88a2.4,2.4,0,0,0,1.41,1.35h0c.71.15,1.15-.54,1-1.59-.75-5.64-3.13-23-5.69-36.11A293.45,293.45,0,0,0,376.36,270.44Z" style="opacity:0.2"></path><path d="M373,254.7l-6.41-1c.12,1.06-1.28.23-3.4-.87L301,220.59s1.39,6.16,2.58,14a99.67,99.67,0,0,1,1.26,11.78A110.59,110.59,0,0,1,312,265.63a122.76,122.76,0,0,1,4.22,29.63l10.55,11s37.82-35.29,39-36.52,2.79-2.07,3.79-.37l6.82,1.09Zm-13,4.55L328.2,286.72c-2.33,2-6.54-1.77-7.44-6.72-.61-3.32-1.32-7-2.07-10.47a167.42,167.42,0,0,0-6.43-21.15l-1.51-12.73c-.25-2.08.83-3.24,2.31-2.47l46.31,24.1C360,257.63,360.38,258.87,359.94,259.25Z" style="fill:#263238"></path><path d="M369.54,256.67l-6.41-1c.13,1.06-1.27.22-3.39-.87l-62.19-32.22a122.39,122.39,0,0,1,2.57,14c1,8.21,1.26,11.58,1.26,11.58a116.39,116.39,0,0,1,7.16,19.49,123.26,123.26,0,0,1,4.22,29.63l10.55,11s37.81-35.29,39-36.53,2.79-2.06,3.78-.36l6.82,1.09Zm-13,4.56L324.77,288.7c-2.33,2-6.54-1.77-7.44-6.72-.61-3.33-1.31-7-2.06-10.47a168.28,168.28,0,0,0-6.44-21.16l-1.51-12.73c-.25-2.07.84-3.24,2.31-2.46L356,259.26C356.6,259.6,357,260.85,356.52,261.23Z" style="fill:#37474f"></path><path d="M385.32,283c-22.76-13.14-41.21.8-41.21,31.15s18.45,65.6,41.21,78.74,41.21-.81,41.21-31.16S408.08,296.18,385.32,283Zm0,106.55c-21.38-12.35-38.7-45.45-38.7-74s17.32-41.59,38.7-29.25S424,331.83,424,360.32,406.69,401.93,385.32,389.59Z" style="fill:#263238"></path><path d="M384.37,285.36c-21.76-12.57-39.4.77-39.4,29.77s17.64,62.72,39.4,75.29,39.4-.78,39.4-29.8S406.13,297.91,384.37,285.36Zm0,101.92c-20.46-11.82-37.05-43.5-37.05-70.79s16.59-39.81,37.05-28,37,43.5,37,70.78S404.83,399.09,384.37,387.28Z" style="fill:#37474f"></path><path d="M384.37,288.49c-20.46-11.81-37.05.73-37.05,28s16.59,59,37.05,70.79,37-.73,37-28S404.83,300.3,384.37,288.49Zm-.46,3.45c8.88,4.95,17.32,14.3,23.65,25.72,1.59,2.86,1.4,5.51-.47,5.9l-18.41,3.82c-.4.09-.83-.39-1-1l-6.42-31C380.68,292.38,381.86,290.8,383.91,291.94Zm-8.36,49.43-6.83,23.14c-.65,2.23-2.6,2-4.28-.54a90.14,90.14,0,0,1-13.82-36.27c-.44-3.08.94-4.35,3.09-2.84l21.28,15A1.46,1.46,0,0,1,375.55,341.37Zm.08-16.88-21.44-12.67a6.16,6.16,0,0,1-2.71-6.4c2.63-9.8,8.42-15.77,15.92-17.08,1.88-.33,3.78,1.88,4.25,5l4.63,30.5C376.37,324.45,376.08,324.76,375.63,324.49Zm29.24,62.18c-7.12,3-15.92.92-24.46-5.34-2.14-1.56-3.2-4.56-2.34-6.7l8.52-21.21c.19-.46.64-.36,1,.21l17.21,27C406.46,383.2,406.51,386,404.87,386.67Zm6.19-12.85-16-28.13c-.35-.61-.32-1.21.05-1.35l17.48-6.48c1.67-.62,3.65,1.32,4.31,4.3,2.87,12.86,2.28,24.61-1.29,33C414.71,377.24,412.68,376.66,411.06,373.82Z" style="fill:#37474f"></path><path d="M384.37,282.94c-22.76-13.14-41.21.8-41.21,31.15s18.45,65.6,41.21,78.74,41.21-.8,41.21-31.16S407.13,296.08,384.37,282.94Zm0,106.55c-21.38-12.35-38.7-45.45-38.7-73.95s17.32-41.6,38.7-29.26,38.7,45.45,38.7,73.94S405.75,401.83,384.37,389.49Z" style="fill:#455a64"></path><path d="M388.18,340.08c0,2.8-1.71,4.09-3.81,2.88s-3.81-4.47-3.81-7.27,1.71-4.09,3.81-2.88S388.18,337.28,388.18,340.08Z" style="fill:#e0e0e0"></path><path d="M400,356.19l10.43,18.74c1.7,3.06,4.45,4.11,5.57,2.07a25.71,25.71,0,0,0,2.45-7.77c-.1,7.89-2.2,11.9-5.8,14.78Z" style="fill:#BA68C8"></path><path d="M395.82,327.5l12.29-2.2c2-.36,2.48-3.73.9-6.9a63.12,63.12,0,0,0-5.79-9.28c5.64,5.83,8.72,11.9,11.14,19.38Z" style="fill:#BA68C8"></path><path d="M375.78,313.16,373,293.06c-.46-3.28-2.91-6.42-5-6.33a12.6,12.6,0,0,0-6,2c3.59-4.28,7.59-4.55,12.68-2.8Z" style="fill:#BA68C8"></path><path d="M367.62,333l-14-10.22c-2.3-1.67-4.29-.24-4,3a59.3,59.3,0,0,0,2.07,10.54c-3.42-8.48-4-14.71-3.3-21.11Z" style="fill:#BA68C8"></path><path d="M382.6,359.59l-5.84,13.77c-1,2.25.27,6.28,2.53,8.18A30.8,30.8,0,0,0,386.6,386c-5.7-1-10.08-4.54-14.72-10.24Z" style="fill:#BA68C8"></path><path d="M305.69,292.45a60.27,60.27,0,0,1-.38,6.89s0,0,0,0c-1.12,7.38-6.77,7.6-6.77,7.6l-8-10.31-.76,8.52,6.72,14.59c-5.2,4.88-12.27,6.45-20.28,4l-.05,0-.91-.29-.41-.15c-6-2.52-10.34-11.06-10.34-11.06L266,301.21l-6.63-2-5.55,8.61a95.51,95.51,0,0,1-17.48-31.17c-.23-.68-.46-1.37-.67-2.06l0-.05c-2.5-8.75.44-14.11.44-14.11l9,3.48-3.33-9.77-10-9.12c.87-11.51,4.95-19.89,11.11-24.28,4.34-2.18,9.78,2.32,9.78,2.32l4,13.21,4.56-4-.69-14a35.38,35.38,0,0,1,8.11,3.5,60.86,60.86,0,0,1,16.57,14.78,33.48,33.48,0,0,1,6,15.35l-6.53,4.69,6.16,7.29,9.6.39A85.29,85.29,0,0,1,305.69,292.45Z" style="fill:#37474f"></path><path d="M282,322.22c-1.3-.6-2.59-.93-3.89-1.51a17.92,17.92,0,0,1-3.58-2,23.63,23.63,0,0,1-3.12-2.81c-.49-.53-1-1.06-1.45-1.63a33,33,0,0,0-2.29-2.84c-.21-.2-.62-.24-.48.24a13.4,13.4,0,0,0,3.09,4.6,20.79,20.79,0,0,0,3.56,3.07,23.66,23.66,0,0,0,4.18,2.33,9.65,9.65,0,0,0,4.07,1.07C282.19,322.68,282.12,322.29,282,322.22Zm22.1-34.16c0-.19-.29-.36-.32-.2-.3,1.52-.4,3.22-.68,4.78a16.52,16.52,0,0,1-1.1,3.89,9.55,9.55,0,0,1-1.68,2.68,11.9,11.9,0,0,1-1,1c-.59.5-1.31.73-1.79,1.41-.12.18-.11.77.22.89,1.19.47,2.24-.55,3-1.33a10,10,0,0,0,1.82-3.14,24.19,24.19,0,0,0,1.23-4.62A19.74,19.74,0,0,0,304.08,288.06ZM284.4,239.52a52.32,52.32,0,0,0-3.42-5.19,25.22,25.22,0,0,0-3.86-4.38c-.13-.1-.23.18-.11.34,1.12,1.55,2.34,2.93,3.48,4.46a41.26,41.26,0,0,1,2.89,4.47,37.68,37.68,0,0,1,2.08,4.46c.29.74.57,1.5.82,2.25.42,1.24.66,2.5,1.19,3.71.14.31.56.71.61.32.21-1.46-.63-3.79-1.25-5.43A35.12,35.12,0,0,0,284.4,239.52Zm-32.82-12.94a6.08,6.08,0,0,0-3.74-2,7.55,7.55,0,0,0-3.32,0,10.43,10.43,0,0,0-3.35,1.41,7.2,7.2,0,0,0-2.73,2.65c-.06.13.15.48.25.42,1-.57,1.86-1.42,2.83-2a7.71,7.71,0,0,1,2.89-1.14,8.08,8.08,0,0,1,3,.08,14.76,14.76,0,0,1,1.52.39,12.86,12.86,0,0,0,2.52.88C251.63,227.29,251.87,227,251.58,226.58ZM238.93,275a26.7,26.7,0,0,1-.25-4.4c0-.69.06-1.37.12-2a21,21,0,0,0,.37-3.16c0-.3-.28-.91-.51-.75-.87.62-1,2.69-1.06,4.18a26.78,26.78,0,0,0,.38,5,50.61,50.61,0,0,0,1.35,6.07,34,34,0,0,0,2.17,6c.09.18.32.11.27-.08-.51-1.9-1.2-3.81-1.73-5.72A37.64,37.64,0,0,1,238.93,275Z" style="fill:#BA68C8"></path><path d="M269.59,216.22c-22.76-13.14-41.21.81-41.21,31.15s18.45,65.6,41.21,78.74,41.21-.8,41.21-31.16S292.35,229.36,269.59,216.22Zm0,106.55c-21.38-12.34-38.7-45.45-38.7-73.95s17.32-41.6,38.7-29.25,38.7,45.44,38.7,73.94S291,335.11,269.59,322.77Z" style="fill:#263238"></path><path d="M268.65,218.54c-21.76-12.56-39.4.77-39.4,29.78s17.64,62.72,39.4,75.28S308,322.82,308,293.81,290.4,231.1,268.65,218.54Zm0,101.92c-20.47-11.81-37-43.5-37-70.78s16.58-39.82,37-28,37,43.5,37,70.77S289.1,332.27,268.65,320.46Z" style="fill:#37474f"></path><path d="M268.65,216.13c-22.77-13.15-41.22.8-41.22,31.14s18.45,65.6,41.22,78.75,41.2-.81,41.2-31.16S291.4,229.27,268.65,216.13Zm0,106.54c-21.38-12.34-38.71-45.44-38.71-74s17.33-41.59,38.71-29.25,38.69,45.44,38.69,73.94S290,335,268.65,322.67Z" style="fill:#455a64"></path><polygon points="308.08 238.98 311.68 237.71 313.07 249.33 309.27 250.78 308.08 238.98" style="fill:#BA68C8"></polygon><path d="M308.08,239l-6-3a3.21,3.21,0,0,0-3.94.37l-31.89,32.53,2.7,4.49,29.94-25.18a2.21,2.21,0,0,1,2.66,0,26.21,26.21,0,0,0,4.41,2.1c3.29,1.19,3.43.28,3.43.28Z" style="fill:#BA68C8"></path><path d="M308.08,239l-6-3a3.21,3.21,0,0,0-3.94.37l-31.89,32.53,2.7,4.49,29.94-25.18a2.21,2.21,0,0,1,2.66,0,26.21,26.21,0,0,0,4.41,2.1c3.29,1.19,3.43.28,3.43.28Z" style="fill:#fff;opacity:0.30000000000000004"></path><path d="M266.27,268.89l53.2,32.23a9.53,9.53,0,0,1,3.84,7.48h0c0,3.17-2.09,4.42-4.45,2.67l-52.2-37.68Z" style="fill:#BA68C8"></path><path d="M272.45,273.27c0,2.8-1.7,4.09-3.81,2.87s-3.8-4.47-3.8-7.27,1.7-4.09,3.8-2.88S272.45,270.46,272.45,273.27Z" style="fill:#e0e0e0"></path><path d="M270.54,272.16c0,1.4-.85,2-1.9,1.43a4.53,4.53,0,0,1-1.89-3.61c0-1.4.85-2,1.89-1.44A4.55,4.55,0,0,1,270.54,272.16Z" style="fill:#37474f"></path><path d="M388.18,340.08c0,2.8-1.71,4.09-3.81,2.88s-3.81-4.47-3.81-7.27,1.71-4.09,3.81-2.88S388.18,337.28,388.18,340.08Z" style="fill:#e0e0e0"></path><path d="M319.84,291.75c-3.32-1.8-6.26-1.84-8.32-.48-.43.28-.95.53-1.5.88-2.18,1.28-3.11,3.86-3.26,6.29,0,.41,0,.83,0,1.27.18,7.32,5.56,16.09,12,19.6.4.21.8.41,1.19.57l.69.26a9.33,9.33,0,0,0,2.74.59,6,6,0,0,0,3.73-1c.56-.34,1.05-.6,1.67-1,2-1.27,3.17-3.84,3.08-7.43C331.68,304,326.29,295.25,319.84,291.75Zm-2.73,22.14c-2-1.49-4.9-6.06-6.05-8.62a22.47,22.47,0,0,0,2,1.17c3,1.47,2.91-.62,4.16.8s1.12,5,.21,6.85A1.62,1.62,0,0,1,317.11,313.89Zm5.5-13.75a2.49,2.49,0,0,0-.49.24c-.32.18-1.6.95-1.74,1a2.21,2.21,0,0,0-.86.9c-1.52-1.47-3.36-6.24-3.29-8.5,2.61.81,7,4.28,7.68,5.64a1.4,1.4,0,0,1,.13.33A7.26,7.26,0,0,0,322.61,300.14Zm-8.78-1.29c1.05,3.44,2.52,3.94,2.64,5.06-2.27-.3-6-2.41-6.31-4.58a8.73,8.73,0,0,1,1.84-5.87C313,293.86,313,296,313.83,298.85Zm7,18c-1.23-1.06.07-2.16.63-4.44a6.13,6.13,0,0,0-.11-3.29c2.4,1.8,6.06,6.58,5.19,8.05a1.49,1.49,0,0,1-.12.14C324.43,317.91,321.65,317.63,320.8,316.88Zm5.43-7.69c-2.59-3.27-3.55-2.09-4.2-3.86a2.26,2.26,0,0,1,.75-2.41,3,3,0,0,1,3.66,1.12c1.28,2.13,2.05,6.06,2.17,8.51C328,311.68,327.21,310.43,326.23,309.19Z" style="fill:#e0e0e0"></path><path d="M319.84,291.75c-3.32-1.8-6.26-1.84-8.32-.48-.43.28-.95.53-1.5.88-2.18,1.28-3.11,3.86-3.26,6.29,0,.41,0,.83,0,1.27.18,7.32,5.56,16.09,12,19.6.4.21.8.41,1.19.57l.69.26a9.33,9.33,0,0,0,2.74.59,6,6,0,0,0,3.73-1c.56-.34,1.05-.6,1.67-1,2-1.27,3.17-3.84,3.08-7.43C331.68,304,326.29,295.25,319.84,291.75Zm-2.73,22.14c-2-1.49-4.9-6.06-6.05-8.62a22.47,22.47,0,0,0,2,1.17c3,1.47,2.91-.62,4.16.8s1.12,5,.21,6.85A1.62,1.62,0,0,1,317.11,313.89Zm5.5-13.75a2.49,2.49,0,0,0-.49.24c-.32.18-1.6.95-1.74,1a2.21,2.21,0,0,0-.86.9c-1.52-1.47-3.36-6.24-3.29-8.5,2.61.81,7,4.28,7.68,5.64a1.4,1.4,0,0,1,.13.33A7.26,7.26,0,0,0,322.61,300.14Zm-8.78-1.29c1.05,3.44,2.52,3.94,2.64,5.06-2.27-.3-6-2.41-6.31-4.58a8.73,8.73,0,0,1,1.84-5.87C313,293.86,313,296,313.83,298.85Zm7,18c-1.23-1.06.07-2.16.63-4.44a6.13,6.13,0,0,0-.11-3.29c2.4,1.8,6.06,6.58,5.19,8.05a1.49,1.49,0,0,1-.12.14C324.43,317.91,321.65,317.63,320.8,316.88Zm5.43-7.69c-2.59-3.27-3.55-2.09-4.2-3.86a2.26,2.26,0,0,1,.75-2.41,3,3,0,0,1,3.66,1.12c1.28,2.13,2.05,6.06,2.17,8.51C328,311.68,327.21,310.43,326.23,309.19Z" style="opacity:0.2"></path><path d="M318.09,292.79c-6.45-3.49-11.54-.4-11.35,6.92s5.56,16.09,12,19.6,11.53.39,11.34-6.92S324.54,296.3,318.09,292.79Zm-2.83.85c2.27,0,7.86,4.26,8.65,5.82s-1.22,1-3,1.72c-2.31.88-1.15,3.11-2.53,2.57C316.31,303,313,293.66,315.26,293.64Zm-3.44-.26c1.17.17,1.09,2.46,2,5.47,1.16,3.8,2.84,4,2.64,5.44-.3,2.11-7.63-.84-8.05-3.92S310.64,293.2,311.82,293.38Zm3.55,21.54c-2.54-1.86-6.49-8.68-6.56-10.13s1.91.5,4.29,1.65c3,1.47,2.91-.62,4.16.8C319.11,309.32,317.91,316.8,315.37,314.92Zm11.14,2.28c-1.15,1.91-6.23,1.78-7.46.72s.09-2.16.65-4.44c.7-2.9-1.05-4.4-.07-5C321.06,307.7,327.65,315.28,326.51,317.2Zm-2-7c-2.59-3.27-3.56-2.1-4.21-3.87-1-2.57,4.31-5.37,6.15-2.32s2.64,9.8,1.95,10.59S326.54,312.8,324.5,310.23Z" style="fill:#e0e0e0"></path><path d="M318.52,310.1c2,1.07,3.53.13,3.48-2.11a7.79,7.79,0,0,0-3.68-6c-2-1.07-3.53-.12-3.47,2.12A7.74,7.74,0,0,0,318.52,310.1Z" style="fill:#455a64"></path><path d="M309.13,323.32l-2.6-1.64,10.09-15.93a1.54,1.54,0,0,1,2.12-.48h0a1.55,1.55,0,0,1,.48,2.13Z" style="fill:#263238"></path><path d="M312.09,321.77l-7-4a1.41,1.41,0,0,0-1.43,0l-11.14,6.43a1.42,1.42,0,0,0-.72,1.24v2.32a1.45,1.45,0,0,0,.72,1.24l7,4a1.48,1.48,0,0,0,1.44,0l11.12-6.44a1.44,1.44,0,0,0,.71-1.24V323A1.42,1.42,0,0,0,312.09,321.77Z" style="fill:#37474f"></path><path d="M300.25,319.77l-7.69,4.44a1.42,1.42,0,0,0-.72,1.24v2.32a1.45,1.45,0,0,0,.72,1.24l7,4a1.55,1.55,0,0,0,.72.19Z" style="fill:#263238"></path><path d="M305.37,326.48l7.24-4.19a1.37,1.37,0,0,0-.52-.52l-7-4a1.41,1.41,0,0,0-1.43,0l-11.14,6.43a1.37,1.37,0,0,0-.52.52l7.55,4.33a1.32,1.32,0,0,0,1.33,0l4.45-2.58" style="fill:#455a64"></path><polygon points="310.74 326.63 302.68 331.29 302.68 328.8 310.74 324.15 310.74 326.63" style="fill:#BA68C8"></polygon><path d="M372.92,272.42l-6.82-1.09s4.49,20.05,7.94,33.29c2.88,11,6.21,26.34,7.24,31.1a3.3,3.3,0,0,0,1.34,2.08l.16.09a2.85,2.85,0,0,1,1,1.19l.94,1.88a2.4,2.4,0,0,0,1.41,1.35h0c.71.14,1.15-.55,1-1.59-.75-5.64-3.13-23-5.68-36.11A294.83,294.83,0,0,0,372.92,272.42Z" style="fill:#BA68C8"></path><path d="M385.77,339c-.46-.26-.83,0-.83.63a2,2,0,0,0,.83,1.58c.46.27.83,0,.83-.62A2,2,0,0,0,385.77,339Zm0-2.93a4.52,4.52,0,0,0-1.9-3.62c-1-.61-1.89,0-1.89,1.43a4.54,4.54,0,0,0,1.89,3.62C384.92,338.12,385.77,337.48,385.77,336.09Z" style="fill:#37474f"></path><polygon points="376.35 270.44 372.92 272.42 369.54 256.67 372.96 254.7 376.35 270.44" style="fill:#455a64"></polygon><polygon points="297.55 222.57 300.97 220.59 364.1 253.3 360.68 255.28 297.55 222.57" style="fill:#455a64"></polygon><path d="M290,187.4c0,2.78.91,3.57,3.13,8.07a47.82,47.82,0,0,1,4.57,15.69c.91,6.71,1.5,11.41,1.5,11.41,0,1.9,5.89,2.76,5.89.56,0,0-.28-2.2-1.39-9.63s-1.63-13.65-5.61-21.43Z" style="fill:#263238"></path><path d="M314.77,198.69c-2.16-4.09-7.45-10.2-7.45-10.2s-13.34-20.66-30.2-12.36a10.79,10.79,0,0,0-6.16,7.62,13.68,13.68,0,0,0-.35,3.51,8.55,8.55,0,0,0,1.68,5.08c1.94,3.09,7.83,5.92,14.95,8.23l1.54.48c2.54.76,5.11,1.43,7.68,2.13s5.09,1.39,7.58,2.24c1,.35,2,.72,3,1.16.4.18.8.37,1.19.59a7.38,7.38,0,0,0,1.36.62,3.3,3.3,0,0,0,1.29.12,5,5,0,0,0,1-.19,3.6,3.6,0,0,0,.83-.42,5.91,5.91,0,0,0,2.17-2.69A6.93,6.93,0,0,0,314.77,198.69Z" style="fill:#e0e0e0"></path><path d="M314.77,198.69c-2.16-4.09-7.45-10.2-7.45-10.2s-13.34-20.66-30.2-12.36a10.79,10.79,0,0,0-6.16,7.62,13.68,13.68,0,0,0-.35,3.51,8.55,8.55,0,0,0,1.68,5.08c1.94,3.09,7.83,5.92,14.95,8.23l1.54.48c2.54.76,5.11,1.43,7.68,2.13s5.09,1.39,7.58,2.24c1,.35,2,.72,3,1.16.4.18.8.37,1.19.59a7.38,7.38,0,0,0,1.36.62,3.3,3.3,0,0,0,1.29.12,5,5,0,0,0,1-.19,3.6,3.6,0,0,0,.83-.42,5.91,5.91,0,0,0,2.17-2.69A6.93,6.93,0,0,0,314.77,198.69Z" style="opacity:0.30000000000000004"></path><path d="M277.12,176.13c-5.15,2.42-8.14,7.56-4.63,13.16,1.95,3.09,7.83,5.92,14.95,8.23s19.39,4.78,22.29,7.48,7.57-1.5,5-6.31A61.68,61.68,0,0,0,308,188C304.48,183.3,292.78,168.76,277.12,176.13Z" style="fill:#e0e0e0"></path><path d="M374.32,247.75a2.68,2.68,0,0,0-1.61-2l-6.65-3.62-6.68,4.08,1,8.17L367,258a7.79,7.79,0,0,0,7,0,2.28,2.28,0,0,0,1.28-2S374.36,248.47,374.32,247.75Z" style="fill:#BA68C8"></path><path d="M366.06,242.09l6.65,3.62c2,1.1,2.16,2.9.32,4a7.74,7.74,0,0,1-7,0l-6.65-3.62Z" style="fill:#BA68C8"></path><path d="M366.06,242.09l6.65,3.62c2,1.1,2.16,2.9.32,4a7.74,7.74,0,0,1-7,0l-6.65-3.62Z" style="fill:#fff;opacity:0.5"></path><path d="M369.52,244.54c-.77-5.13-1.17-8.18-2.84-12.19l-7.06-2.22c.28.53.59,1.13.94,1.85,2,4,3.08,6.41,3.58,10.47.31,2.5.35,3.58.35,3.58,0,1.7,5.28,2.47,5.28.5C369.77,246.53,369.64,245.39,369.52,244.54Z"></path><path d="M371.69,231.52c-1.51-.47-3.09-1-4.82-1.74-5.61-2.29-9.52-3.94-9.52-3.94-2.27-.92-3.29,3.94-1.59,4.92,0,0,.25.12,3.86,1.54l7.06,2.22Z" style="fill:#37474f"></path><path d="M357.81,276.31a8.21,8.21,0,0,1-4.09-1.23l-7.26-4.19a1.77,1.77,0,1,1,1.78-3.07l7.25,4.19c1.33.76,2.53.94,3.3.5s1.22-1.58,1.22-3.11a14.16,14.16,0,0,0-6.29-11l-4.89-2.82c-2.49-1.44-3.86-3.46-3.86-5.69s1.37-4.24,3.86-5.68l43.37-25a17.61,17.61,0,0,1,16.14,0l4.88,2.82a17.58,17.58,0,0,1,8.07,14c0,3-1.06,5.16-3,6.27s-4.36.94-6.85-.5l-7.26-4.19a1.77,1.77,0,1,1,1.78-3.07l7.25,4.19c1.33.76,2.53.94,3.3.5s1.22-1.58,1.22-3.11a14.16,14.16,0,0,0-6.29-11l-4.89-2.82a14.13,14.13,0,0,0-12.58,0l-43.37,25c-1.33.76-2.09,1.71-2.09,2.6s.76,1.85,2.09,2.61l4.88,2.82a17.58,17.58,0,0,1,8.07,14c0,3-1.06,5.16-3,6.28A5.49,5.49,0,0,1,357.81,276.31Z" style="fill:#263238"></path><path d="M368.36,233c1-.55,2.85,2.46,1.72,3.11l11.24-6.49c1.24-.71-.55-3.78-2.09-2.89Z" style="fill:#BA68C8"></path></g><g id="freepik--leg-1--inject-220"><path d="M287.84,295c.17-1.52,1.15-4.56,4.56-11.23s11-20.44,13.29-24.66c3.72-6.81,4.86-10.34,4.42-15.62-.7-8.41-4.95-31.08-4.58-36a42.94,42.94,0,0,1,1.76-9.16L291.9,169.11s-4.49,1-10.21,6.15-10.79,12.83-10.54,22.62,3.92,16.81,7.23,26.09,9.27,23.87,9.27,23.87A28.81,28.81,0,0,0,281,262.31c-1.31,8.84-3.88,23.29-4.4,27.58-.79,1.73-.26,3.23,3.6,5C282.77,296.12,287.84,295,287.84,295Z" style="fill:#b16668"></path><path d="M305.76,321c0,.93-.13,1.56-3.64,2.32s-8.6.1-12.76-1.45-7.42-5.77-8.89-8.63-4.84-5.79-7.09-7.39-2.7-2.17-2.41-2.94,1.22-2.76,1.22-2.76Z" style="fill:#ebebeb"></path><path d="M272.31,296.71c.92-2.55,2.15-3.29,2.78-5.36s1.48-1.46,1.48-1.46l0,1.31c0,.05.37.27.41.31.31.25.6.52.91.78a10.61,10.61,0,0,0,1.81,1.32,4.71,4.71,0,0,0,1,.41,8.33,8.33,0,0,1,1.21.23,2.54,2.54,0,0,1,.89.74,3.5,3.5,0,0,1,.11-1.66c.53-1.23,3.78-1.06,6.11-1.18s1.12,1.37,1.66,3.63,4.4,10.07,6.06,12.54a68.26,68.26,0,0,0,5,5.26c2.5,2.29,3.39,3,4.12,3.61s.7,2.49.13,3.54-7.21,2.94-13.71.6-8.09-5.4-10-9.2a18.57,18.57,0,0,0-6.21-7.13,15.28,15.28,0,0,1-4.28-3.8A9,9,0,0,1,272.31,296.71Z" style="fill:#455a64"></path><path d="M296.69,308.32c-1.66-2.47-5.53-10.28-6.06-12.54s.68-3.76-1.66-3.63-5.58,0-6.11,1.18.2,4.37,2.21,8.37a40.09,40.09,0,0,0,6.37,8.36Z" style="fill:#263238"></path><path d="M305.19,318.28c-1.25.15-2.61.3-2.72.74s-.47,3-1.22,3.74a3.3,3.3,0,0,1-2.76.84,32.84,32.84,0,0,1-8.94-1.91,16.93,16.93,0,0,1-7.48-6.27c-2.18-3.22-2.47-4.68-5.55-7.33s-4.3-3.15-5.62-4.68a2.94,2.94,0,0,0-.22,1.07,2.78,2.78,0,0,0,1.19,1.39,40.92,40.92,0,0,1,5.81,4.45,43.32,43.32,0,0,1,3.93,5.72,17.35,17.35,0,0,0,7.83,6.34c3.68,1.4,8.88,2.21,12.44,1.46s3.82-1.42,4.16-1.78a7.65,7.65,0,0,0,.64-3.33C306.54,318.18,306.08,318.17,305.19,318.28Z" style="fill:#263238"></path><path d="M290.5,308.92c2.66-1.37,4.82-1.71,5.72-1.35a2,2,0,0,1,.77,1.1s-1.83-.31-5.55,1.39C291.44,310.06,290.45,309.83,290.5,308.92Z" style="fill:#fafafa"></path><path d="M294.68,304.8a14.28,14.28,0,0,0-6.89,1.46,1.28,1.28,0,0,1-.88-1.14s3.86-2.11,7.17-1.46C294.08,303.66,294.81,304.17,294.68,304.8Z" style="fill:#fafafa"></path><path d="M292.76,301c-1.42-.74-5.94.73-7.36,1.73a1.07,1.07,0,0,1-.86-1.26s3.83-2.56,7.55-1.91C292.09,299.54,293.07,300.13,292.76,301Z" style="fill:#fafafa"></path><path d="M291.17,297.38c-.72-.23-4.92-.62-7.67,1.26a1.27,1.27,0,0,1-.64-1.28,10.21,10.21,0,0,1,7.83-1.33A2,2,0,0,1,291.17,297.38Z" style="fill:#fafafa"></path><path d="M307.72,198.3l-10.91-31.91c-11.95,4.29-20.42,10.78-23.79,19.6s-3,16.64.58,26.44,11.74,29.66,11.74,29.66,8,.84,18.81-3.18a13.38,13.38,0,0,0,5.26-3.44s-3.34-21.34-3.52-26.56a32.24,32.24,0,0,1,1.83-10.61" style="fill:#BA68C8"></path><g style="opacity:0.5"><path d="M307.72,198.3l-10.91-31.91c-11.95,4.29-20.42,10.78-23.79,19.6s-3,16.64.58,26.44,11.74,29.66,11.74,29.66,8,.84,18.81-3.18a13.38,13.38,0,0,0,5.26-3.44s-3.34-21.34-3.52-26.56a32.24,32.24,0,0,1,1.83-10.61" style="fill:#fff"></path></g></g><g id="freepik--Chest--inject-220"><path d="M296.81,166.39c-9.59,4.35-14,8.3-14.56,14.75s4.21,11.71,9.41,14,11.47,2.08,13.87,4.49a63.4,63.4,0,0,1,5.27,6.47,88.9,88.9,0,0,1,14.71,0c6.63.72,8.42,4.18,8.42,4.18s5.19-3.53,7.37-4.81c-.72-6.34,1.72-11,6.51-13.05a5.41,5.41,0,0,1,7.1,2.14s7.13-2,9.74-2.5c0-.51,3.7-8.88,0-14.89s-15.75-11.63-30.33-14.1S307.08,162,296.81,166.39Z" style="fill:#455a64"></path><path d="M315.62,201.31c-3.33-5.1-8.82-16.75-16.85-18.51s-13.59,1.73-14.58,6a17.07,17.07,0,0,0,7.47,6.36c5.19,2.31,11.47,2.08,13.87,4.49a63.4,63.4,0,0,1,5.27,6.47s3.08-.27,7-.31A20.16,20.16,0,0,0,315.62,201.31Z" style="fill:#37474f"></path><path d="M366.28,184c-10.74-.49-19.56,1.78-25.38,5.37-6,3.74-11.5,9.45-13.06,16.83,0,.1,0,.19,0,.29,4.77,1.15,6.14,3.79,6.14,3.79s5.19-3.53,7.37-4.81c-.72-6.34,1.72-11,6.51-13.05a5.41,5.41,0,0,1,7.1,2.14s7.14-2,9.74-2.5A30.54,30.54,0,0,0,366.28,184Z" style="fill:#BA68C8"></path></g><g id="freepik--arm-1--inject-220"><path d="M350.51,257.24a11.45,11.45,0,0,0,4.56,1.87c1.52.09,5.17,0,6.95.65a26.48,26.48,0,0,1,6.52,4.47,1.76,1.76,0,0,1-.05,2.35,2,2,0,0,1-1.15.68c-.18,0-.62-.07-.75,0s0,.8,0,1a2.19,2.19,0,0,1-.39,1.47,8.15,8.15,0,0,0-.82,1c-.31.61-.17,1.43-.63,1.94s-1.27.44-1.56,1c-.08.18-.13.37-.22.54a1.62,1.62,0,0,1-1,.75,4,4,0,0,1-1.3,0,12.14,12.14,0,0,1-4.28-1.29,10.73,10.73,0,0,1-1.74-1.44c-.62-.53-1.24-1.06-1.87-1.58a21.71,21.71,0,0,0-3-2.07c-2.49-1.42-3.95-2.21-3.95-2.21a8,8,0,0,1,.92-6.3C348.61,257.09,350.51,257.24,350.51,257.24Z" style="fill:#455a64"></path><path d="M351.72,257.92a5.07,5.07,0,0,0,2.87.14,7.05,7.05,0,0,1,1.29,1.12A6.1,6.1,0,0,1,351.72,257.92Z" style="fill:#37474f"></path><path d="M366.49,267a4.13,4.13,0,0,0-1-1,13.58,13.58,0,0,0-1.16-.83,12.66,12.66,0,0,0-1.14-.63,7.61,7.61,0,0,0-1.23-.47c-.11,0-.11.17,0,.21.42.19.83.41,1.23.63a12.81,12.81,0,0,1,1.18.72c.36.25.71.52,1,.8a9.46,9.46,0,0,0,1,.82C366.5,267.36,366.53,267.11,366.49,267Z" style="fill:#37474f"></path><path d="M359.86,261a1.71,1.71,0,0,0-1,1.45c0,.31.05.62.06.93a1.07,1.07,0,0,1-.28.86,4.48,4.48,0,0,0-.79.65,2.12,2.12,0,0,0-.41,1c-.09.67.46,1.62-.1,2.18-.2.21-.47.33-.69.52a2,2,0,0,0-.48,2,5.19,5.19,0,0,1,.15-1,1.54,1.54,0,0,1,.51-.82,6.38,6.38,0,0,1,.71-.43c.85-.59.21-1.59.44-2.41s1.17-1.31,1.29-2.23-.23-1.78.6-2.41c.16-.12.37-.25.36-.45A1.42,1.42,0,0,0,359.86,261Z" style="fill:#37474f"></path><path d="M365.17,270.84a2.15,2.15,0,0,0-.35-.5c-.12-.15-.25-.29-.38-.43a5.11,5.11,0,0,0-.42-.39,1.26,1.26,0,0,0-.46-.33c-.05,0,0,.09,0,.11a3.32,3.32,0,0,0,.43.41c.14.13.28.26.41.4s.26.27.38.41a2.47,2.47,0,0,0,.37.42C365.17,271,365.18,270.86,365.17,270.84Z" style="fill:#37474f"></path><path d="M363.32,273.26a2,2,0,0,0-.34-.49l-.39-.43a5,5,0,0,0-.41-.39,1.38,1.38,0,0,0-.47-.33s0,.09,0,.11a3.44,3.44,0,0,0,.44.41l.41.39.37.42a3.7,3.7,0,0,0,.37.42C363.32,273.41,363.33,273.29,363.32,273.26Z" style="fill:#37474f"></path><path d="M310.8,206.12c3.19,5,4.64,11,5.4,16.1s2.2,16.86,2.72,23.36c.62,7.68.41,8.6,6.65,11.67s20.88,9.8,20.88,9.8c-.16-3.48,2.33-6.84,5.09-9.43l-17.91-12.46s-.16-11,.14-15.23,1.44-8.16,1.13-12.7a39,39,0,0,0-1-6.93s-1-3.59-7.94-4.39A53.59,53.59,0,0,0,310.8,206.12Z" style="fill:#37474f"></path><path d="M333.63,245.16s-.16-11,.14-15.23,1.44-8.16,1.13-12.7a39,39,0,0,0-1-6.93s-.77-2.79-5.73-4l-.41.21c-1.31,7.69,1.11,13.56.91,20.81s1,20,1,20l20.18,12c.5-.57,1.05-1.14,1.65-1.7Z" style="fill:#BA68C8"></path><path d="M333.63,245.16s-.16-11,.14-15.23,1.44-8.16,1.13-12.7a39,39,0,0,0-1-6.93s-.77-2.79-5.73-4l-.41.21c-1.31,7.69,1.11,13.56.91,20.81s1,20,1,20l20.18,12c.5-.57,1.05-1.14,1.65-1.7Z" style="fill:#fff;opacity:0.2"></path><path d="M315.27,217.39h0c4-2,4-7.26,2.39-11.9a53.58,53.58,0,0,0-6.88.63A36.72,36.72,0,0,1,315.27,217.39Z" style="fill:#263238"></path></g><g id="freepik--Hand--inject-220"><path d="M417.66,226.07a10.43,10.43,0,0,1,1.27,2.06,1.22,1.22,0,0,1-.73.9,2.42,2.42,0,0,1-2.15-.06c-.43-.36-.8-.79-1.24-1.13a2.59,2.59,0,0,0-1.68-.57c-1.12.06-1,1.43-.61,2.22a1.4,1.4,0,0,0-1.1,1.4,4,4,0,0,0,.58,1.83,1.27,1.27,0,0,0-1.12,1.55,6.66,6.66,0,0,0,.45,1c0,.13-.21.42-.24.56a1.12,1.12,0,0,0,.16.81,8.4,8.4,0,0,0,2.66,2.78,3.69,3.69,0,0,0,3.7.87c1.09-.21,2.21-.39,3.28-.68a.85.85,0,0,0,.63-.44c.21-.39.11-.86.32-1.24s.56-.61.46-1.12a2,2,0,0,1-.09-.59c.05-.45.5-.73.72-1.12a1.8,1.8,0,0,0-.13-1.62,1.05,1.05,0,0,1-.19-.58,1.11,1.11,0,0,1,.22-.45c.65-1.05.15-2.14-.46-3.07a9.55,9.55,0,0,0-1-1.54A5.34,5.34,0,0,0,417.66,226.07Z" style="fill:#455a64"></path><path d="M421.37,232.63a5,5,0,0,0-1.28.1l-1.19.14a19.91,19.91,0,0,1-2.18.12,2.7,2.7,0,0,1-1.94-1,22.5,22.5,0,0,1-1.57-1.82s-.06,0,0,.07c.75,1.24,1.83,2.9,3.4,3.11a10.58,10.58,0,0,0,2.25-.05c.46,0,.91-.08,1.36-.14a3.1,3.1,0,0,0,1.24-.3C421.5,232.83,421.46,232.64,421.37,232.63Z" style="fill:#37474f"></path><path d="M421.14,235a6.06,6.06,0,0,0-1.19.21l-1.14.25a6.05,6.05,0,0,1-2.39.22,5.06,5.06,0,0,1-2.12-1c-.59-.46-1.07-1-1.65-1.49-.08-.06-.1.09-.07.13a7,7,0,0,0,3.64,2.67,4.86,4.86,0,0,0,2.21-.08l1.3-.28a6.48,6.48,0,0,0,1.46-.35C421.27,235.23,421.23,235,421.14,235Z" style="fill:#37474f"></path><path d="M418.05,238.2c-.27,0-.51.18-.78.23a2.74,2.74,0,0,1-.81,0,4.1,4.1,0,0,1-1.76-.63,13.22,13.22,0,0,1-1.41-1l-.72-.61a3.92,3.92,0,0,0-.78-.63c-.06,0-.07.1-.05.13a7.88,7.88,0,0,0,1.52,1.42,10.54,10.54,0,0,0,1.53,1.12,4.57,4.57,0,0,0,1.67.59c.49.06,1.38.08,1.71-.36C418.24,238.37,418.17,238.19,418.05,238.2Z" style="fill:#37474f"></path><path d="M412.91,226.14a3.74,3.74,0,0,0-2.07,4c.18,1.12.64,3.59.67,4.09s1,1.26,2.12-.5.6-3.5.69-4.36a2.13,2.13,0,0,1,.74-1.36A20.81,20.81,0,0,0,412.91,226.14Z" style="fill:#37474f"></path></g><g id="freepik--Head--inject-220"><path d="M340.74,205.81c2.14-1.22,8.37,2.72,10.76,3.95a26.81,26.81,0,0,0,8,10.86c3.52,2.76,7.81,1.06,10.18-1.41s5.75-8.59,7.62-13.07,3.16-11.78-2.88-16.68-13.88-4.81-18,1.18l-5.54-.35S339.73,190.14,340.74,205.81Z" style="fill:#b16668"></path><path d="M374,209.22s1.64,7.1,1.05,7.42-3.75-.33-3.75-.33Z" style="fill:#9a4a4d"></path><path d="M352.82,204.06c.73,2.55,5.69,6.84,9.25,9.32s8.65,2.48,10.16,1.34,2.13-2.52,2.55-1.74l.25,1.5a11,11,0,0,0,4.58-1.34c2.24-1.27,3.56-5.39,3.56-5.39Z" style="fill:#263238"></path><g id="freepik--Helmet--inject-220"><path d="M381.42,209.22c-3.83,2.95-10.57,2.78-17,1.43-7.32-1.52-10-4.47-12.37-7.61s-3.85-2.42-4.53,0-4.8-1.93-7.31-6.52-7.13-18.71-2.7-23.74,24.61-1.64,34.19,5.58C383.81,187.49,390.5,203.42,381.42,209.22Z" style="fill:#BA68C8"></path><path d="M381.42,209.22c-3.83,2.95-10.57,2.78-17,1.43-7.32-1.52-10-4.47-12.37-7.61s-3.85-2.42-4.53,0-4.8-1.93-7.31-6.52-7.13-18.71-2.7-23.74,24.61-1.64,34.19,5.58C383.81,187.49,390.5,203.42,381.42,209.22Z" style="fill:#fff;opacity:0.5"></path><path d="M375.39,211.41a16,16,0,0,0,2.17-.41c.9-6.27-2-14.39-8-22.3-6.3-8.23-18.85-15.27-28.49-17.78a7.71,7.71,0,0,0-3.09,1.43c9.31,1.67,23.41,9.08,29.94,17.61C374.77,199,376.3,206.7,375.39,211.41Z" style="fill:#fafafa"></path><path d="M375.52,185.88a51.89,51.89,0,0,0-16.29-13.39,52.9,52.9,0,0,0-9.23-1.88c7.93,2.77,17.45,8.27,23.89,16.54,6.28,8.08,8.63,15.63,7,22.45.19-.13.38-.25.55-.38a9,9,0,0,0,1.89-1.6C384.09,200.84,381.48,193.55,375.52,185.88Z" style="fill:#fafafa"></path><path d="M351.5,209.76a34.06,34.06,0,0,1-.15-5.7,12.23,12.23,0,0,0-1.22,5Z" style="fill:#9a4a4d"></path><path d="M383.17,207.15c-4.36,2.63-8.9,2.79-13.78,1.34a21.56,21.56,0,0,1-9.12-5.77c-2.77-2.85-5-6.4-8.64-8.11-2.27-1.08-5-1.36-6.87-3a10.62,10.62,0,0,1-2.73-4.5,44,44,0,0,1-2.26-8.59,10.69,10.69,0,0,1,.22-5.59,5.07,5.07,0,0,1,1.66-2.17,7.44,7.44,0,0,0-4.15,2c-4.43,5,.18,19.14,2.7,23.74s6.62,9,7.31,6.52,2.19-3.13,4.53,0,5,6.09,12.37,7.61c6.44,1.35,13.18,1.52,17-1.43a8.78,8.78,0,0,0,3.08-3.29A4.21,4.21,0,0,1,383.17,207.15Z" style="fill:#BA68C8;opacity:0.5"></path><path d="M376.77,190.78c.08,1.73.69,3.41.73,5.14.06,3-1.59,5.77-3.41,8.16a2.32,2.32,0,0,0-.6,1.2,1.52,1.52,0,0,0,.88,1.37,3.6,3.6,0,0,0,1.69.29c3,0,6.25-1.36,7.5-4.09,1.8-3.91-.75-9.55-3.06-12.74-.57-.79-1.37-1.94-2.48-1.7S376.73,189.85,376.77,190.78Z" style="fill:#fff;opacity:0.5"></path><path d="M352.82,204.06l-1.59-2a33.31,33.31,0,0,0-.17,7.19l-3.5-6.42a.88.88,0,0,1-1.29.81c1,1.55,1.83,3.21,2.89,4.69a9.24,9.24,0,0,0,2.78,3.08c.54.29.44-.61.46-.92l.09-1.58c.08-1.15.15-2.29.23-3.44C352.76,205,352.79,204.53,352.82,204.06Z" style="fill:#37474f"></path></g></g></g></g><g id="freepik--character-1--inject-220"><g id="freepik--character--inject-220"><path d="M171.1,279.21l-7-4a1.41,1.41,0,0,0-1.43,0l-11.14,6.43a1.43,1.43,0,0,0-.71,1.24v2.32a1.44,1.44,0,0,0,.71,1.24l7,4a1.46,1.46,0,0,0,1.43,0L171.1,284a1.45,1.45,0,0,0,.72-1.24v-2.32A1.42,1.42,0,0,0,171.1,279.21Z" style="fill:#37474f"></path><path d="M159.26,277.21l-7.69,4.44a1.43,1.43,0,0,0-.71,1.24v2.32a1.44,1.44,0,0,0,.71,1.24l7,4a1.4,1.4,0,0,0,.71.19Z" style="fill:#263238"></path><path d="M164.38,283.92l7.25-4.19a1.47,1.47,0,0,0-.53-.52l-7-4a1.41,1.41,0,0,0-1.43,0l-11.14,6.43a1.37,1.37,0,0,0-.52.52l7.55,4.33a1.32,1.32,0,0,0,1.33,0l4.45-2.58" style="fill:#455a64"></path><polygon points="169.76 284.07 161.69 288.73 161.69 286.25 169.76 281.59 169.76 284.07" style="fill:#BA68C8"></polygon><g id="freepik--leg-2--inject-220"><path d="M169.65,271.17c.19-1.52,1.21-4.55,4.7-11.18s6.73-12.54,9.08-16.73c3.79-6.77,5.44-12.4,3.52-17.34-4-10.41-18.31-26.29-20.2-30.84a43.61,43.61,0,0,1-2.24-27.6H123.62a101.66,101.66,0,0,0-2,17.74c-.32,16.06,13.18,24.61,26.34,34.13,14.47,10.45,19.09,13.57,19.09,13.57s-4.47,4.25-5.88,13.09S159,261.68,158.44,266c-.81,1.72-.29,3.23,3.55,5.06C164.58,272.26,169.65,271.17,169.65,271.17Z" style="fill:#f28f8f"></path><path d="M187.28,297.35c0,.93-.15,1.55-3.67,2.28s-8.6,0-12.74-1.6-7.36-5.85-8.79-8.73-4.78-5.85-7-7.47-2.67-2.2-2.38-3,1.26-2.76,1.26-2.76Z" style="fill:#ebebeb"></path><path d="M154.1,272.73c1-2.54,2.19-3.27,2.84-5.32s1.5-1.45,1.5-1.45l-.05,1.31c0,.05.36.28.41.31l.9.79a10.58,10.58,0,0,0,1.79,1.34,4.79,4.79,0,0,0,1,.43,7.2,7.2,0,0,1,1.21.24,2.51,2.51,0,0,1,.87.75,3.56,3.56,0,0,1,.14-1.66c.54-1.22,3.79-1,6.12-1.11s1.1,1.38,1.61,3.65,4.3,10.12,5.92,12.6a69.42,69.42,0,0,0,5,5.33c2.47,2.31,3.35,3,4.08,3.65s.66,2.5.08,3.54-7.24,2.85-13.72.45-8-5.49-9.87-9.32a18.61,18.61,0,0,0-6.13-7.2,15.35,15.35,0,0,1-4.23-3.84A9,9,0,0,1,154.1,272.73Z" style="fill:#BA68C8"></path><path d="M178.35,284.61c-1.62-2.48-5.41-10.33-5.92-12.6s.73-3.75-1.61-3.65-5.58-.11-6.12,1.11.14,4.37,2.11,8.4a39.91,39.91,0,0,0,6.28,8.43Z" style="fill:#fff;opacity:0.2"></path><path d="M186.74,294.67c-1.25.14-2.62.27-2.73.71s-.5,3-1.26,3.73a3.28,3.28,0,0,1-2.77.8,33.1,33.1,0,0,1-8.92-2,16.89,16.89,0,0,1-7.4-6.36c-2.15-3.24-2.43-4.71-5.48-7.39s-4.26-3.21-5.55-4.74a1.65,1.65,0,0,0,.94,2.46,42.34,42.34,0,0,1,5.76,4.52,45.4,45.4,0,0,1,3.86,5.76,17.32,17.32,0,0,0,7.75,6.44c3.66,1.44,8.85,2.3,12.42,1.59s3.84-1.37,4.19-1.73a7.59,7.59,0,0,0,.67-3.32C188.1,294.58,187.63,294.57,186.74,294.67Z" style="fill:#263238"></path><path d="M172.16,285.14c2.67-1.33,4.84-1.64,5.73-1.28a2,2,0,0,1,.76,1.11s-1.82-.33-5.56,1.33C173.09,286.3,172.1,286.05,172.16,285.14Z" style="fill:#fafafa"></path><path d="M176.38,281.08c-1.77-.24-4.08.22-6.91,1.37a1.26,1.26,0,0,1-.85-1.14s3.87-2.07,7.18-1.39C175.8,279.92,176.52,280.45,176.38,281.08Z" style="fill:#fafafa"></path><path d="M174.51,277.23c-1.41-.75-5.95.67-7.38,1.65a1.06,1.06,0,0,1-.84-1.27s3.85-2.51,7.57-1.83C173.86,275.78,174.83,276.39,174.51,277.23Z" style="fill:#fafafa"></path><path d="M173,273.61c-.72-.23-4.91-.67-7.68,1.18a1.28,1.28,0,0,1-.63-1.29,10.17,10.17,0,0,1,7.85-1.24A2,2,0,0,1,173,273.61Z" style="fill:#fafafa"></path><path d="M160.66,228.41c1.75-5.47,9.19-15,19.32-14.61a76.83,76.83,0,0,0-6.73-9.73c-4.74-6-6.67-9.13-8.45-16.28a42.4,42.4,0,0,1,.1-20.31H123.62a60.24,60.24,0,0,0-2.44,18.82c.23,11,6.69,18.17,14.88,24.72S160.66,228.41,160.66,228.41Z" style="fill:#263238"></path></g><g id="freepik--arm-2--inject-220"><path d="M241.29,238.8c-3.72-.82-5.07-1.88-6.31-3.62a6.45,6.45,0,0,0-2.93-2.29s-1.45-1.5.23-5.27,3.87-3.39,3.87-3.39l5.63,3Z" style="fill:#263238"></path><path d="M189.52,175.88c5.61,4.52,21.34,34.26,21.34,34.26l25.46,13.91a11.2,11.2,0,0,0-4.06,9.13s-23-7.54-28.28-10c-4.9-2.24-6.88-4.57-9.19-8.66S176.66,186,176.66,186Z" style="fill:#e0e0e0"></path><path d="M210.86,210.14s-6.31-11.93-12.37-21.83c-1.83-1.87-3.72-3.2-5.4-3.2l-1.63,8.07s1.57-.28,4.76,2.14S206.8,214.38,208.55,215c1.44.51,18.9,9.23,25.08,12.33a11.16,11.16,0,0,1,2.69-3.28Z" style="fill:#BA68C8"></path><path d="M210.86,210.14s-6.31-11.93-12.37-21.83c-1.83-1.87-3.72-3.2-5.4-3.2l-1.63,8.07s1.57-.28,4.76,2.14S206.8,214.38,208.55,215c1.44.51,18.9,9.23,25.08,12.33a11.16,11.16,0,0,1,2.69-3.28Z" style="fill:#fff;opacity:0.2"></path></g><g id="freepik--bike--inject-220"><path d="M203.17,271.54l-6.82-1.1s4.49,20.06,7.94,33.3c2.88,11,6.21,26.33,7.24,31.1a3.24,3.24,0,0,0,1.34,2.07l.16.09a2.89,2.89,0,0,1,1,1.2l.94,1.88a2.35,2.35,0,0,0,1.41,1.34h0c.71.15,1.16-.54,1-1.59-.76-5.63-3.14-23-5.69-36.1A292.26,292.26,0,0,0,203.17,271.54Z" style="fill:#BA68C8"></path><path d="M203.17,271.54l-6.82-1.1s4.49,20.06,7.94,33.3c2.88,11,6.21,26.33,7.24,31.1a3.24,3.24,0,0,0,1.34,2.07l.16.09a2.89,2.89,0,0,1,1,1.2l.94,1.88a2.35,2.35,0,0,0,1.41,1.34h0c.71.15,1.16-.54,1-1.59-.76-5.63-3.14-23-5.69-36.1A292.26,292.26,0,0,0,203.17,271.54Z" style="opacity:0.2"></path><path d="M199.78,255.79l-6.41-1c.13,1.06-1.28.22-3.39-.88l-62.19-32.21s1.38,6.15,2.57,14a96.73,96.73,0,0,1,1.26,11.78,110.77,110.77,0,0,1,7.16,19.28A123.33,123.33,0,0,1,143,296.35l10.55,11s37.82-35.28,39-36.52,2.79-2.06,3.78-.37l6.82,1.1Zm-13,4.56L155,287.82c-2.33,2-6.54-1.77-7.44-6.72-.61-3.33-1.31-7-2.06-10.47a168.28,168.28,0,0,0-6.44-21.16l-1.51-12.73c-.25-2.08.84-3.24,2.31-2.47l46.32,24.1C186.84,258.72,187.2,260,186.76,260.35Z" style="fill:#263238"></path><path d="M196.35,257.77l-6.4-1c.12,1.06-1.28.22-3.4-.88l-62.19-32.22a123.6,123.6,0,0,1,2.58,14c1,8.21,1.26,11.58,1.26,11.58a116.89,116.89,0,0,1,7.15,19.49,122.84,122.84,0,0,1,4.22,29.63l10.55,11s37.82-35.29,39-36.52,2.79-2.07,3.79-.37l6.81,1.1Zm-13,4.55-31.74,27.47c-2.34,2-6.54-1.77-7.45-6.72-.6-3.32-1.31-7-2.06-10.46a167.24,167.24,0,0,0-6.43-21.16l-1.51-12.73c-.25-2.08.83-3.24,2.31-2.47l46.31,24.1C183.41,260.7,183.77,261.94,183.33,262.32Z" style="fill:#37474f"></path><path d="M212.14,284.14c-22.77-13.15-41.22.8-41.22,31.14s18.45,65.6,41.22,78.75,41.2-.81,41.2-31.16S234.89,297.27,212.14,284.14Zm0,106.54c-21.38-12.34-38.71-45.44-38.71-73.95s17.33-41.59,38.71-29.25,38.69,45.44,38.69,73.94S233.51,403,212.14,390.68Z" style="fill:#263238"></path><path d="M211.19,286.45c-21.76-12.56-39.41.77-39.41,29.78s17.65,62.72,39.41,75.28,39.39-.78,39.39-29.79S232.94,299,211.19,286.45Zm0,101.92c-20.47-11.81-37.05-43.5-37.05-70.78s16.58-39.82,37.05-28,37,43.5,37,70.77S231.64,400.18,211.19,388.37Z" style="fill:#37474f"></path><path d="M211.19,289.59c-20.47-11.82-37.05.72-37.05,28s16.58,59,37.05,70.78,37-.72,37-28S231.64,301.4,211.19,289.59Zm-.47,3.45c8.88,4.95,17.32,14.3,23.66,25.72,1.59,2.86,1.39,5.5-.47,5.89l-18.42,3.83c-.4.08-.83-.39-1-1.05l-6.41-31C207.49,293.48,208.67,291.89,210.72,293Zm-8.35,49.43-6.84,23.14c-.65,2.22-2.6,2-4.28-.55a90.17,90.17,0,0,1-13.82-36.27c-.43-3.07.95-4.35,3.09-2.83l21.28,15A1.47,1.47,0,0,1,202.37,342.47Zm.07-16.88L181,312.92a6.14,6.14,0,0,1-2.7-6.4c2.62-9.8,8.41-15.77,15.91-17.08,1.88-.34,3.79,1.88,4.26,5l4.62,30.5C203.19,325.55,202.89,325.86,202.44,325.59Zm29.24,62.18c-7.11,3-15.91.91-24.46-5.34-2.14-1.56-3.2-4.57-2.33-6.71l8.52-21.21c.18-.46.64-.35,1,.22l17.22,27C233.28,384.29,233.32,387.08,231.68,387.77Zm6.19-12.86-16-28.12c-.35-.61-.32-1.21,0-1.35L239.4,339c1.67-.62,3.65,1.31,4.32,4.29,2.86,12.87,2.28,24.61-1.3,33C241.53,378.33,239.49,377.76,237.87,374.91Z" style="fill:#37474f"></path><path d="M211.19,284c-22.77-13.15-41.21.8-41.21,31.14s18.44,65.6,41.21,78.75,41.2-.81,41.2-31.16S234,297.18,211.19,284Zm0,106.54c-21.38-12.34-38.71-45.44-38.71-73.95s17.33-41.59,38.71-29.25,38.7,45.44,38.7,73.94S232.56,402.92,211.19,390.58Z" style="fill:#455a64"></path><path d="M215,341.18c0,2.8-1.7,4.09-3.81,2.87s-3.8-4.46-3.8-7.27,1.7-4.09,3.8-2.88S215,338.37,215,341.18Z" style="fill:#e0e0e0"></path><path d="M226.85,357.28,237.27,376c1.71,3.06,4.45,4.12,5.57,2.07a25.62,25.62,0,0,0,2.45-7.76c-.1,7.89-2.2,11.9-5.79,14.77Z" style="fill:#BA68C8"></path><path d="M222.63,328.59l12.29-2.2c2-.35,2.48-3.73.91-6.89a64,64,0,0,0-5.79-9.29c5.64,5.84,8.71,11.9,11.13,19.38Z" style="fill:#BA68C8"></path><path d="M202.6,314.26l-2.83-20.1c-.47-3.28-2.92-6.42-5-6.33a12.62,12.62,0,0,0-6,2c3.58-4.28,7.59-4.54,12.68-2.8Z" style="fill:#BA68C8"></path><path d="M194.43,334.09l-14-10.23c-2.3-1.67-4.28-.23-4,3a59.94,59.94,0,0,0,2.06,10.53c-3.42-8.48-4-14.7-3.3-21.11Z" style="fill:#BA68C8"></path><path d="M209.42,360.68l-5.85,13.78c-1,2.25.27,6.27,2.54,8.17a30.91,30.91,0,0,0,7.3,4.49c-5.7-1-10.08-4.54-14.72-10.25Z" style="fill:#BA68C8"></path><path d="M132.5,293.55a60.22,60.22,0,0,1-.38,6.88,0,0,0,0,1,0,0c-1.12,7.38-6.77,7.6-6.77,7.6l-8-10.31-.76,8.51,6.73,14.6c-5.21,4.87-12.28,6.44-20.28,4l-.06,0c-.3-.08-.6-.18-.91-.29l-.41-.15c-6-2.51-10.34-11.05-10.34-11.05l1.55-11.06-6.62-2-5.55,8.6a95.39,95.39,0,0,1-17.48-31.16c-.24-.69-.47-1.38-.68-2.07a.08.08,0,0,1,0,0c-2.51-8.75.44-14.12.44-14.12l9,3.48-3.34-9.76-10-9.13c.86-11.5,4.95-19.89,11.1-24.27,4.35-2.19,9.78,2.32,9.78,2.32l4,13.2,4.56-4-.69-14a35.76,35.76,0,0,1,8.11,3.49A61.08,61.08,0,0,1,112,237.56a33.58,33.58,0,0,1,6,15.35l-6.54,4.68,6.16,7.29,9.61.4A85.53,85.53,0,0,1,132.5,293.55Z" style="fill:#37474f"></path><path d="M108.8,323.32c-1.31-.61-2.6-.94-3.9-1.51a18.2,18.2,0,0,1-3.57-2.06,22.34,22.34,0,0,1-3.12-2.8c-.49-.53-1-1.07-1.45-1.64a35.08,35.08,0,0,0-2.3-2.84c-.21-.2-.62-.23-.48.24a13.44,13.44,0,0,0,3.09,4.61,21.09,21.09,0,0,0,3.56,3.06,23.46,23.46,0,0,0,4.19,2.34,9.41,9.41,0,0,0,4.06,1.06C109,323.77,108.93,323.38,108.8,323.32Zm22.1-34.16c0-.19-.3-.37-.33-.21-.29,1.53-.4,3.23-.67,4.78a17.47,17.47,0,0,1-1.1,3.9,10.13,10.13,0,0,1-1.68,2.67,10.79,10.79,0,0,1-1,1c-.58.5-1.31.73-1.79,1.41-.12.17-.1.76.22.89,1.19.46,2.25-.56,3-1.33a9.85,9.85,0,0,0,1.82-3.15,24.53,24.53,0,0,0,1.24-4.62A20.1,20.1,0,0,0,130.9,289.16Zm-19.69-48.55a52.89,52.89,0,0,0-3.42-5.19,25.51,25.51,0,0,0-3.86-4.37c-.13-.11-.22.17-.11.33,1.12,1.55,2.34,2.94,3.48,4.47a36.82,36.82,0,0,1,2.89,4.47,35.36,35.36,0,0,1,2.08,4.45c.29.75.57,1.5.83,2.26.41,1.23.65,2.5,1.18,3.71.14.31.56.71.62.31.21-1.46-.63-3.79-1.26-5.43A34.58,34.58,0,0,0,111.21,240.61ZM78.4,227.67a6.21,6.21,0,0,0-3.75-2,7.55,7.55,0,0,0-3.32.06A10.43,10.43,0,0,0,68,227.11a7.11,7.11,0,0,0-2.72,2.65c-.07.12.15.47.25.41,1-.57,1.85-1.41,2.83-2A7.84,7.84,0,0,1,71.22,227a8.3,8.3,0,0,1,3,.09,14.68,14.68,0,0,1,1.52.38,13.44,13.44,0,0,0,2.53.89C78.44,228.38,78.69,228,78.4,227.67ZM65.74,276.11a26.78,26.78,0,0,1-.24-4.41c0-.68,0-1.36.12-2a24.15,24.15,0,0,0,.37-3.17c0-.3-.28-.91-.52-.74-.86.61-1,2.69-1.06,4.18a26.9,26.9,0,0,0,.38,5,54.14,54.14,0,0,0,1.35,6.06,33.47,33.47,0,0,0,2.17,6c.1.19.33.12.27-.08-.5-1.9-1.2-3.81-1.73-5.71A39.52,39.52,0,0,1,65.74,276.11Z" style="fill:#BA68C8"></path><path d="M96.41,217.32c-22.77-13.14-41.21.8-41.21,31.15s18.44,65.6,41.21,78.74,41.2-.81,41.2-31.16S119.17,230.46,96.41,217.32Zm0,106.55C75,311.52,57.7,278.42,57.7,249.91S75,208.32,96.41,220.66s38.7,45.45,38.7,73.94S117.78,336.21,96.41,323.87Z" style="fill:#263238"></path><path d="M95.46,219.64c-21.76-12.57-39.4.77-39.4,29.77s17.64,62.72,39.4,75.29,39.39-.78,39.39-29.79S117.21,232.2,95.46,219.64Zm0,101.92c-20.46-11.82-37-43.5-37-70.79S75,211,95.46,222.77s37,43.5,37,70.78S115.92,333.37,95.46,321.56Z" style="fill:#37474f"></path><path d="M95.46,217.22c-22.77-13.14-41.21.8-41.21,31.15S72.69,314,95.46,327.11s41.21-.8,41.21-31.16S118.22,230.36,95.46,217.22Zm0,106.55c-21.38-12.35-38.7-45.45-38.7-73.95s17.32-41.6,38.7-29.26,38.7,45.45,38.7,73.94S116.83,336.11,95.46,323.77Z" style="fill:#455a64"></path><polygon points="134.9 240.08 138.49 238.8 139.89 250.42 136.08 251.87 134.9 240.08" style="fill:#BA68C8"></polygon><path d="M134.9,240.08l-6-3a3.21,3.21,0,0,0-3.95.37L93.08,270l2.7,4.48,30-25.18a2.23,2.23,0,0,1,2.65,0,26.16,26.16,0,0,0,4.41,2.11c3.29,1.19,3.43.27,3.43.27Z" style="fill:#BA68C8"></path><path d="M134.9,240.08l-6-3a3.21,3.21,0,0,0-3.95.37L93.08,270l2.7,4.48,30-25.18a2.23,2.23,0,0,1,2.65,0,26.16,26.16,0,0,0,4.41,2.11c3.29,1.19,3.43.27,3.43.27Z" style="fill:#fff;opacity:0.30000000000000004"></path><path d="M93.08,270l53.21,32.22c2.13,1.32,3.83,4.64,3.83,7.49h0c0,3.17-2.08,4.42-4.44,2.66L93.47,274.69Z" style="fill:#BA68C8"></path><path d="M99.26,274.36c0,2.8-1.7,4.09-3.8,2.88s-3.81-4.47-3.81-7.27,1.7-4.09,3.81-2.88S99.26,271.56,99.26,274.36Z" style="fill:#e0e0e0"></path><path d="M97.35,273.26c0,1.39-.85,2-1.89,1.43a4.52,4.52,0,0,1-1.9-3.62c0-1.39.85-2,1.9-1.43A4.54,4.54,0,0,1,97.35,273.26Z" style="fill:#37474f"></path><path d="M215,341.18c0,2.8-1.7,4.09-3.81,2.87s-3.8-4.46-3.8-7.27,1.7-4.09,3.8-2.88S215,338.37,215,341.18Z" style="fill:#e0e0e0"></path><path d="M146.66,292.84c-3.32-1.8-6.26-1.84-8.33-.48-.43.29-1,.54-1.5.88-2.18,1.29-3.1,3.87-3.26,6.29,0,.41,0,.84,0,1.28.18,7.32,5.57,16.09,12,19.59.4.22.8.41,1.19.58s.47.17.7.26a9.18,9.18,0,0,0,2.74.58,6,6,0,0,0,3.73-1c.55-.34,1-.59,1.66-1,2-1.27,3.18-3.84,3.09-7.43C158.49,305.12,153.11,296.35,146.66,292.84ZM143.92,315c-2-1.49-4.9-6.06-6-8.63a21.51,21.51,0,0,0,2,1.18c3,1.47,2.91-.62,4.17.8s1.11,5,.2,6.85A1.62,1.62,0,0,1,143.92,315Zm5.5-13.75a4.48,4.48,0,0,0-.49.23l-1.74,1a2.28,2.28,0,0,0-.86.9c-1.52-1.47-3.36-6.24-3.28-8.51,2.6.82,7,4.28,7.68,5.64a2.47,2.47,0,0,1,.13.33A6.6,6.6,0,0,0,149.42,301.24Zm-8.78-1.3c1.05,3.45,2.52,3.94,2.65,5.07-2.28-.31-6-2.41-6.32-4.58a8.7,8.7,0,0,1,1.85-5.87C139.79,295,139.78,297.12,140.64,299.94Zm7,18c-1.23-1.06.08-2.16.63-4.43a6.13,6.13,0,0,0-.11-3.29c2.4,1.79,6.07,6.58,5.19,8l-.11.15C151.24,319,148.47,318.73,147.61,318Zm5.43-7.68c-2.59-3.27-3.55-2.1-4.2-3.86a2.31,2.31,0,0,1,.75-2.42,3,3,0,0,1,3.66,1.13c1.28,2.13,2.06,6.06,2.18,8.51C154.81,312.77,154,311.52,153,310.29Z" style="fill:#e0e0e0"></path><path d="M146.66,292.84c-3.32-1.8-6.26-1.84-8.33-.48-.43.29-1,.54-1.5.88-2.18,1.29-3.1,3.87-3.26,6.29,0,.41,0,.84,0,1.28.18,7.32,5.57,16.09,12,19.59.4.22.8.41,1.19.58s.47.17.7.26a9.18,9.18,0,0,0,2.74.58,6,6,0,0,0,3.73-1c.55-.34,1-.59,1.66-1,2-1.27,3.18-3.84,3.09-7.43C158.49,305.12,153.11,296.35,146.66,292.84ZM143.92,315c-2-1.49-4.9-6.06-6-8.63a21.51,21.51,0,0,0,2,1.18c3,1.47,2.91-.62,4.17.8s1.11,5,.2,6.85A1.62,1.62,0,0,1,143.92,315Zm5.5-13.75a4.48,4.48,0,0,0-.49.23l-1.74,1a2.28,2.28,0,0,0-.86.9c-1.52-1.47-3.36-6.24-3.28-8.51,2.6.82,7,4.28,7.68,5.64a2.47,2.47,0,0,1,.13.33A6.6,6.6,0,0,0,149.42,301.24Zm-8.78-1.3c1.05,3.45,2.52,3.94,2.65,5.07-2.28-.31-6-2.41-6.32-4.58a8.7,8.7,0,0,1,1.85-5.87C139.79,295,139.78,297.12,140.64,299.94Zm7,18c-1.23-1.06.08-2.16.63-4.43a6.13,6.13,0,0,0-.11-3.29c2.4,1.79,6.07,6.58,5.19,8l-.11.15C151.24,319,148.47,318.73,147.61,318Zm5.43-7.68c-2.59-3.27-3.55-2.1-4.2-3.86a2.31,2.31,0,0,1,.75-2.42,3,3,0,0,1,3.66,1.13c1.28,2.13,2.06,6.06,2.18,8.51C154.81,312.77,154,311.52,153,310.29Z" style="opacity:0.2"></path><path d="M144.9,293.89c-6.45-3.5-11.53-.4-11.35,6.92s5.57,16.09,12,19.59,11.53.4,11.35-6.92S151.36,297.39,144.9,293.89Zm-2.83.85c2.28,0,7.86,4.26,8.66,5.81s-1.23,1-3,1.73c-2.32.88-1.15,3.1-2.54,2.57C143.13,304.07,139.8,294.76,142.07,294.74Zm-3.44-.26c1.18.17,1.09,2.46,2,5.46,1.16,3.81,2.84,4,2.64,5.45-.29,2.11-7.62-.85-8.05-3.93S137.45,294.3,138.63,294.48ZM142.18,316c-2.53-1.87-6.49-8.69-6.55-10.14s1.9.5,4.28,1.66c3,1.47,2.91-.62,4.17.8C145.92,310.41,144.72,317.9,142.18,316Zm11.14,2.27c-1.14,1.92-6.23,1.79-7.45.73s.08-2.16.64-4.45c.7-2.89-1-4.39-.07-4.95C147.87,308.8,154.46,316.38,153.32,318.29Zm-2-7c-2.59-3.26-3.55-2.1-4.2-3.86-1-2.58,4.31-5.38,6.14-2.32s2.64,9.8,1.95,10.59S153.35,313.89,151.31,311.32Z" style="fill:#e0e0e0"></path><path d="M145.34,311.2c2,1.07,3.53.12,3.47-2.12a7.75,7.75,0,0,0-3.68-6c-2-1.07-3.52-.12-3.47,2.12A7.76,7.76,0,0,0,145.34,311.2Z" style="fill:#455a64"></path><path d="M136,324.42l-2.6-1.65,10.08-15.92a1.53,1.53,0,0,1,2.12-.48h0a1.53,1.53,0,0,1,.48,2.12Z" style="fill:#263238"></path><path d="M138.9,322.86l-7-4a1.46,1.46,0,0,0-1.43,0l-11.14,6.43a1.44,1.44,0,0,0-.71,1.24v2.32a1.43,1.43,0,0,0,.71,1.24l7,4a1.41,1.41,0,0,0,1.43,0l11.12-6.44a1.42,1.42,0,0,0,.72-1.24V324.1A1.45,1.45,0,0,0,138.9,322.86Z" style="fill:#37474f"></path><path d="M127.06,320.86l-7.69,4.44a1.44,1.44,0,0,0-.71,1.24v2.32a1.43,1.43,0,0,0,.71,1.24l7,4a1.4,1.4,0,0,0,.71.19Z" style="fill:#263238"></path><path d="M132.18,327.58l7.25-4.19a1.5,1.5,0,0,0-.53-.53l-7-4a1.46,1.46,0,0,0-1.43,0l-11.14,6.43a1.39,1.39,0,0,0-.52.53l7.55,4.33a1.37,1.37,0,0,0,1.33,0l4.45-2.58" style="fill:#455a64"></path><polygon points="137.56 327.73 129.49 332.38 129.49 329.9 137.56 325.24 137.56 327.73" style="fill:#BA68C8"></polygon><path d="M199.73,273.52l-6.81-1.1s4.48,20.06,7.94,33.29c2.88,11.05,6.21,26.34,7.23,31.11a3.22,3.22,0,0,0,1.35,2.07l.15.09a2.82,2.82,0,0,1,1,1.2l.94,1.87A2.37,2.37,0,0,0,213,343.4h0c.72.15,1.16-.54,1-1.59-.75-5.64-3.14-23-5.69-36.1A292.26,292.26,0,0,0,199.73,273.52Z" style="fill:#BA68C8"></path><path d="M212.58,340.12c-.46-.27-.83,0-.83.62a2,2,0,0,0,.83,1.59c.46.26.83,0,.83-.63A2,2,0,0,0,212.58,340.12Zm0-2.94a4.57,4.57,0,0,0-1.89-3.62c-1.05-.6-1.9,0-1.9,1.44a4.55,4.55,0,0,0,1.9,3.62C211.73,339.22,212.58,338.58,212.58,337.18Z" style="fill:#37474f"></path><polygon points="203.16 271.54 199.74 273.52 196.35 257.77 199.78 255.79 203.16 271.54" style="fill:#455a64"></polygon><polygon points="124.36 223.66 127.79 221.69 190.92 254.4 187.49 256.37 124.36 223.66" style="fill:#455a64"></polygon><path d="M116.81,188.5c0,2.78.91,3.57,3.13,8.07a47.51,47.51,0,0,1,4.57,15.69c.92,6.7,1.5,11.4,1.5,11.4,0,1.9,5.9,2.76,5.9.57,0,0-.29-2.21-1.39-9.64s-1.64-13.64-5.62-21.42Z" style="fill:#263238"></path><path d="M141.58,199.78c-2.15-4.09-7.45-10.19-7.45-10.19s-13.34-20.67-30.19-12.37a10.87,10.87,0,0,0-6.17,7.62,14.19,14.19,0,0,0-.35,3.52,8.52,8.52,0,0,0,1.68,5.07c2,3.09,7.83,5.92,15,8.23.51.17,1,.33,1.54.48,2.55.77,5.12,1.44,7.68,2.14s5.09,1.39,7.58,2.23c1,.35,2,.72,3,1.16.41.19.81.38,1.19.6a6.61,6.61,0,0,0,1.37.61,3.45,3.45,0,0,0,1.28.13,5.11,5.11,0,0,0,1-.2,3.38,3.38,0,0,0,.83-.41,6,6,0,0,0,2.17-2.69A7,7,0,0,0,141.58,199.78Z" style="fill:#e0e0e0"></path><path d="M141.58,199.78c-2.15-4.09-7.45-10.19-7.45-10.19s-13.34-20.67-30.19-12.37a10.87,10.87,0,0,0-6.17,7.62,14.19,14.19,0,0,0-.35,3.52,8.52,8.52,0,0,0,1.68,5.07c2,3.09,7.83,5.92,15,8.23.51.17,1,.33,1.54.48,2.55.77,5.12,1.44,7.68,2.14s5.09,1.39,7.58,2.23c1,.35,2,.72,3,1.16.41.19.81.38,1.19.6a6.61,6.61,0,0,0,1.37.61,3.45,3.45,0,0,0,1.28.13,5.11,5.11,0,0,0,1-.2,3.38,3.38,0,0,0,.83-.41,6,6,0,0,0,2.17-2.69A7,7,0,0,0,141.58,199.78Z" style="opacity:0.30000000000000004"></path><path d="M103.94,177.22c-5.15,2.42-8.15,7.57-4.64,13.16,2,3.1,7.83,5.93,15,8.24s19.4,4.77,22.29,7.48,7.57-1.51,5-6.32a61,61,0,0,0-6.73-10.68C131.3,184.4,119.59,169.86,103.94,177.22Z" style="fill:#e0e0e0"></path><path d="M201.13,248.85a2.66,2.66,0,0,0-1.61-2l-6.65-3.62-6.67,4.09,1,8.16,6.65,3.62a7.74,7.74,0,0,0,7-.05,2.22,2.22,0,0,0,1.28-2S201.18,249.56,201.13,248.85Z" style="fill:#BA68C8"></path><path d="M192.87,243.18l6.65,3.62c2,1.1,2.17,2.91.32,4a7.77,7.77,0,0,1-7,0l-6.64-3.61Z" style="fill:#BA68C8"></path><path d="M192.87,243.18l6.65,3.62c2,1.1,2.17,2.91.32,4a7.77,7.77,0,0,1-7,0l-6.64-3.61Z" style="fill:#fff;opacity:0.5"></path><path d="M196.33,245.64c-.76-5.13-1.17-8.18-2.84-12.2l-7.06-2.22c.28.54.59,1.14.94,1.85,2,4,3.09,6.42,3.59,10.48.31,2.5.34,3.57.34,3.57,0,1.7,5.28,2.47,5.28.51C196.58,247.63,196.46,246.48,196.33,245.64Z"></path><path d="M198.5,232.61c-1.5-.46-3.09-1-4.82-1.73-5.61-2.3-9.51-3.94-9.51-3.94-2.28-.93-3.3,3.94-1.59,4.92l3.85,1.54,7.06,2.22Z" style="fill:#37474f"></path><path d="M184.63,277.4a8.33,8.33,0,0,1-4.1-1.22L173.28,272a1.78,1.78,0,0,1,1.77-3.08l7.26,4.19c1.32.77,2.53.95,3.3.5s1.21-1.58,1.21-3.11a14.16,14.16,0,0,0-6.29-11l-4.88-2.82c-2.49-1.44-3.87-3.45-3.87-5.68s1.38-4.25,3.87-5.68l43.37-25a17.56,17.56,0,0,1,16.13,0l4.89,2.83a17.58,17.58,0,0,1,8.06,14c0,3-1.06,5.16-3,6.27s-4.36.94-6.85-.5L231,238.66a1.78,1.78,0,0,1,1.77-3.08l7.26,4.19c1.32.76,2.52.95,3.3.5s1.21-1.58,1.21-3.11a14.16,14.16,0,0,0-6.29-11l-4.88-2.82a14.15,14.15,0,0,0-12.59,0l-43.37,25c-1.32.77-2.08,1.72-2.08,2.61s.76,1.84,2.08,2.61l4.89,2.82a17.6,17.6,0,0,1,8.07,14c0,3-1.07,5.16-3,6.27A5.43,5.43,0,0,1,184.63,277.4Z" style="fill:#263238"></path><path d="M195.18,234.05c.95-.55,2.85,2.46,1.72,3.11l11.24-6.49c1.23-.71-.56-3.78-2.1-2.89Z" style="fill:#BA68C8"></path></g><g id="freepik--leg-1--inject-220"><path d="M114.65,296.06c.17-1.52,1.15-4.56,4.57-11.22s11-20.44,13.28-24.66c3.72-6.81,4.87-10.34,4.43-15.62-.71-8.41-5-31.08-4.59-36a43.69,43.69,0,0,1,1.76-9.17L118.72,170.2s-4.49,1-10.22,6.15S97.71,189.18,98,199s3.92,16.81,7.24,26.09,9.27,23.87,9.27,23.87a28.71,28.71,0,0,0-6.68,14.46c-1.31,8.85-3.88,23.3-4.41,27.59-.79,1.72-.25,3.23,3.6,5C109.59,297.22,114.65,296.06,114.65,296.06Z" style="fill:#ffa8a7"></path><path d="M132.58,322c0,.94-.14,1.56-3.65,2.33s-8.6.1-12.76-1.45-7.42-5.78-8.89-8.64-4.84-5.79-7.09-7.38-2.7-2.18-2.41-2.94S99,301.19,99,301.19Z" style="fill:#ebebeb"></path><path d="M99.12,297.81c.92-2.55,2.15-3.29,2.78-5.36s1.48-1.46,1.48-1.46l0,1.3s.36.28.4.31l.91.78a10.89,10.89,0,0,0,1.82,1.33,5,5,0,0,0,1,.41,7.1,7.1,0,0,1,1.22.23,2.69,2.69,0,0,1,.88.73,3.38,3.38,0,0,1,.12-1.66c.53-1.22,3.77-1.06,6.11-1.18s1.11,1.37,1.65,3.63,4.41,10.07,6.06,12.54a68.43,68.43,0,0,0,5,5.27c2.49,2.28,3.38,3,4.12,3.6s.69,2.49.12,3.54-7.21,2.94-13.71.61-8.09-5.4-10-9.21a18.57,18.57,0,0,0-6.21-7.13,15.39,15.39,0,0,1-4.28-3.79A9.13,9.13,0,0,1,99.12,297.81Z" style="fill:#BA68C8"></path><path d="M123.5,309.41c-1.65-2.47-5.52-10.27-6.06-12.54s.68-3.75-1.65-3.63-5.58,0-6.11,1.18.19,4.37,2.2,8.38a40.4,40.4,0,0,0,6.37,8.36Z" style="fill:#fff;opacity:0.2"></path><path d="M132,319.37c-1.25.15-2.61.3-2.72.75s-.46,3-1.22,3.74a3.29,3.29,0,0,1-2.76.83,33.14,33.14,0,0,1-8.94-1.9,16.85,16.85,0,0,1-7.47-6.27c-2.19-3.22-2.48-4.68-5.56-7.33S99,306,97.72,304.51a2.85,2.85,0,0,0-.23,1.06,2.88,2.88,0,0,0,1.2,1.4,41.93,41.93,0,0,1,5.81,4.44,44.42,44.42,0,0,1,3.92,5.73,17.4,17.4,0,0,0,7.83,6.34c3.68,1.4,8.88,2.2,12.44,1.45s3.82-1.42,4.17-1.78a7.75,7.75,0,0,0,.63-3.32C133.36,319.27,132.9,319.27,132,319.37Z" style="fill:#263238"></path><path d="M117.32,310c2.65-1.36,4.81-1.7,5.71-1.34a2,2,0,0,1,.78,1.09s-1.83-.3-5.56,1.4C118.25,311.16,117.26,310.92,117.32,310Z" style="fill:#fafafa"></path><path d="M121.49,305.9c-1.77-.22-4.08.27-6.89,1.45a1.27,1.27,0,0,1-.87-1.13s3.85-2.11,7.16-1.47C120.89,304.75,121.63,305.27,121.49,305.9Z" style="fill:#fafafa"></path><path d="M119.57,302.07c-1.41-.73-5.94.74-7.35,1.74a1.06,1.06,0,0,1-.86-1.26s3.82-2.56,7.54-1.92C118.9,300.63,119.88,301.22,119.57,302.07Z" style="fill:#fafafa"></path><path d="M118,298.47c-.72-.22-4.92-.62-7.66,1.27a1.31,1.31,0,0,1-.65-1.29,10.23,10.23,0,0,1,7.84-1.33A2,2,0,0,1,118,298.47Z" style="fill:#fafafa"></path><path d="M134.53,199.39l-10.91-31.91c-12,4.3-20.42,10.79-23.79,19.61s-3,16.64.58,26.43,11.74,29.66,11.74,29.66,8,.84,18.82-3.17a13.35,13.35,0,0,0,5.25-3.45s-3.34-21.33-3.51-26.56a32.07,32.07,0,0,1,1.82-10.61" style="fill:#37474f"></path><path d="M134.53,199.39c-3.73-10.6-7.5-21.19-11.17-31.82l.36.18a60.06,60.06,0,0,0-10.2,4.79c-10.37,6-16,15.81-15.54,27.83.29,7.57,3.49,14.59,6.12,21.59S109.67,236,112.52,243l-.33-.25a35.83,35.83,0,0,0,6.29-.17,54.28,54.28,0,0,0,12.32-2.9,13.42,13.42,0,0,0,5.19-3.34l-.07.24c-.92-6.21-1.83-12.41-2.57-18.64a72,72,0,0,1-.73-9.39,32.86,32.86,0,0,1,1.91-9.19,32.83,32.83,0,0,0-1.73,9.2,71.35,71.35,0,0,0,.91,9.33q1.32,9.32,2.81,18.6l0,.14-.09.1c-3,3.31-7.43,4.34-11.55,5.48a43.06,43.06,0,0,1-12.79,1.35l-.24,0-.09-.23q-4.32-10.5-8.51-21.05c-2.7-7.06-5.88-14.19-6.15-21.88-.41-12.28,5.36-22.44,16-28.46a62,62,0,0,1,10.63-4.83c3.63,10.74,7.15,21.51,10.73,32.27Z" style="fill:#263238"></path></g><g id="freepik--chest--inject-220"><path d="M160.88,210.76c-.73-1-3-3.41-8.51-4a65.16,65.16,0,0,0-6.81-.32c-3.66,0-6.82.23-7.72.3a60.13,60.13,0,0,0-5.18-6.31c-1.43-1.44-4-2-7-2.59a34.82,34.82,0,0,1-7-2c-4.93-2.19-9.67-7.23-9.14-13.56.49-6,4.37-9.87,14.29-14.38a59.86,59.86,0,0,1,23.49-4.47,82.51,82.51,0,0,1,13.76,1.2c14.33,2.44,26.39,8,30,13.89,3.05,4.95.87,11.62.16,13.82q-.09.28-.15.45c-2.45.52-7.76,2-9.15,2.36a5.83,5.83,0,0,0-4.77-2.64,7,7,0,0,0-2.72.6c-5,2.13-7.44,6.94-6.81,13.23C165.7,207.51,162.07,210,160.88,210.76Z" style="fill:#fafafa"></path><path d="M147.3,163.88a82.65,82.65,0,0,1,13.68,1.2c14.21,2.42,26.14,7.92,29.7,13.68,2.94,4.77.81,11.29.11,13.43q0,.12-.06.21c-2.4.52-6.94,1.76-8.62,2.22a6.24,6.24,0,0,0-5-2.57,7.33,7.33,0,0,0-2.9.64c-5.09,2.18-7.66,7.05-7.11,13.41-1.82,1.11-4.8,3.11-6.18,4-1-1.19-3.48-3.28-8.55-3.83a63.3,63.3,0,0,0-6.86-.33c-3.38,0-6.34.19-7.5.28a60.44,60.44,0,0,0-5.07-6.15c-1.53-1.54-4.15-2.09-7.2-2.72a34.38,34.38,0,0,1-7-2c-4.78-2.12-9.37-7-8.87-13.11.48-5.77,4.28-9.57,14-14a59.4,59.4,0,0,1,23.32-4.45m0-.91a60.41,60.41,0,0,0-23.68,4.51c-9.58,4.36-14,8.31-14.56,14.76s4.22,11.71,9.41,14,11.47,2.07,13.87,4.49a64.11,64.11,0,0,1,5.28,6.47s3.59-.32,7.94-.32a64.1,64.1,0,0,1,6.76.32c6.63.72,8.43,4.18,8.43,4.18s5.18-3.53,7.37-4.81c-.73-6.34,1.71-11,6.5-13.06a6.51,6.51,0,0,1,2.54-.56,5.51,5.51,0,0,1,4.56,2.71s7.14-2,9.74-2.5c0-.51,3.71-8.89,0-14.9s-15.75-11.62-30.33-14.1A82.51,82.51,0,0,0,147.3,163Z" style="fill:#e0e0e0"></path><path d="M142.43,202.4c-3.33-5.09-8.81-16.74-16.84-18.5s-13.6,1.72-14.58,6a17.17,17.17,0,0,0,7.46,6.36c5.2,2.31,11.47,2.07,13.87,4.49a64.11,64.11,0,0,1,5.28,6.47s3.07-.28,7-.32A20.37,20.37,0,0,0,142.43,202.4Z" style="fill:#BA68C8"></path><path d="M142.43,202.4c-3.33-5.09-8.81-16.74-16.84-18.5s-13.6,1.72-14.58,6a17.17,17.17,0,0,0,7.46,6.36c5.2,2.31,11.47,2.07,13.87,4.49a64.11,64.11,0,0,1,5.28,6.47s3.07-.28,7-.32A20.37,20.37,0,0,0,142.43,202.4Z" style="opacity:0.2"></path><path d="M193.09,185.11c-10.74-.48-19.56,1.78-25.38,5.38-6.05,3.73-11.5,9.45-13.06,16.82,0,.1,0,.2,0,.3,4.77,1.15,6.14,3.79,6.14,3.79s5.18-3.53,7.37-4.81c-.73-6.34,1.71-11,6.5-13.06a5.42,5.42,0,0,1,7.1,2.15s7.14-2,9.74-2.5A30.67,30.67,0,0,0,193.09,185.11Z" style="fill:#BA68C8"></path></g><g id="freepik--arm-1--inject-220"><path d="M177.33,258.33a11.11,11.11,0,0,0,4.56,1.87c1.51.09,5.16,0,6.94.66a26.45,26.45,0,0,1,6.52,4.46,1.77,1.77,0,0,1,0,2.35,2,2,0,0,1-1.16.68c-.17,0-.62-.07-.74,0s0,.8,0,1a2.21,2.21,0,0,1-.4,1.47,10,10,0,0,0-.82,1c-.31.62-.17,1.43-.62,1.95s-1.27.44-1.57,1.05c-.08.17-.13.36-.22.53a1.56,1.56,0,0,1-1,.75,3.55,3.55,0,0,1-1.3,0,12.28,12.28,0,0,1-4.27-1.28,10.38,10.38,0,0,1-1.74-1.45c-.62-.53-1.25-1-1.88-1.57a20.26,20.26,0,0,0-3-2.07c-2.5-1.43-3.95-2.22-3.95-2.22a8,8,0,0,1,.91-6.29C175.42,258.19,177.33,258.33,177.33,258.33Z" style="fill:#455a64"></path><path d="M178.53,259a5.11,5.11,0,0,0,2.87.13,7.05,7.05,0,0,1,1.29,1.12A6.06,6.06,0,0,1,178.53,259Z" style="fill:#37474f"></path><path d="M193.3,268.13a3.92,3.92,0,0,0-1-1,11.68,11.68,0,0,0-1.16-.83c-.37-.23-.75-.44-1.13-.63a8.14,8.14,0,0,0-1.24-.48c-.1,0-.1.18,0,.21.42.2.83.42,1.24.63s.79.46,1.17.72.71.52,1.05.8a8.41,8.41,0,0,0,1,.82C193.32,268.46,193.34,268.21,193.3,268.13Z" style="fill:#37474f"></path><path d="M186.67,262a1.72,1.72,0,0,0-1,1.45c0,.31.06.62.07.94a1.11,1.11,0,0,1-.29.86c-.26.24-.57.35-.79.64a2,2,0,0,0-.4,1c-.09.68.46,1.63-.1,2.19-.21.2-.48.33-.7.52a2,2,0,0,0-.48,2,5.29,5.29,0,0,1,.15-1,1.68,1.68,0,0,1,.51-.82c.21-.17.48-.27.71-.43.85-.58.21-1.59.44-2.4s1.17-1.31,1.29-2.23-.23-1.79.6-2.41c.16-.12.38-.25.37-.46A1.89,1.89,0,0,0,186.67,262Z" style="fill:#37474f"></path><path d="M192,271.93a2,2,0,0,0-.34-.49c-.13-.15-.26-.3-.39-.43a5,5,0,0,0-.41-.39,1.38,1.38,0,0,0-.47-.33c-.05,0,0,.09,0,.11a3.44,3.44,0,0,0,.44.41l.41.39c.13.14.25.27.37.42a3,3,0,0,0,.38.42S192,272,192,271.93Z" style="fill:#37474f"></path><path d="M190.14,274.36a2.49,2.49,0,0,0-.35-.5,5.22,5.22,0,0,0-.39-.43A5.08,5.08,0,0,0,189,273a1.62,1.62,0,0,0-.46-.33c-.05,0-.05.09,0,.12a3.28,3.28,0,0,0,.43.4c.14.13.28.26.41.4s.26.27.38.41a2.14,2.14,0,0,0,.37.42S190.15,274.38,190.14,274.36Z" style="fill:#37474f"></path><path d="M137.62,207.22c3.19,5,4.63,11,5.4,16.09s2.2,16.87,2.72,23.36c.61,7.69.4,8.6,6.64,11.68s20.88,9.79,20.88,9.79c-.16-3.47,2.34-6.84,5.09-9.43l-17.9-12.45s-.17-11,.14-15.24,1.43-8.16,1.12-12.69a38.32,38.32,0,0,0-1-6.93s-1-3.59-7.95-4.39A52.78,52.78,0,0,0,137.62,207.22Z" style="fill:#e0e0e0"></path><path d="M160.45,246.26s-.17-11,.14-15.24,1.43-8.16,1.12-12.69a38.32,38.32,0,0,0-1-6.93s-.77-2.8-5.74-4l-.4.21c-1.32,7.68,1.1,13.56.9,20.8s1,20,1,20l20.18,12.06c.51-.58,1.05-1.14,1.65-1.71Z" style="fill:#BA68C8"></path><path d="M160.45,246.26s-.17-11,.14-15.24,1.43-8.16,1.12-12.69a38.32,38.32,0,0,0-1-6.93s-.77-2.8-5.74-4l-.4.21c-1.32,7.68,1.1,13.56.9,20.8s1,20,1,20l20.18,12.06c.51-.58,1.05-1.14,1.65-1.71Z" style="fill:#fff;opacity:0.2"></path><path d="M142.09,218.48h0c4-2,4.05-7.26,2.39-11.9a53.25,53.25,0,0,0-6.87.63A36.77,36.77,0,0,1,142.09,218.48Z" style="fill:#BA68C8"></path><path d="M142.09,218.48h0c4-2,4.05-7.26,2.39-11.9a53.25,53.25,0,0,0-6.87.63A36.77,36.77,0,0,1,142.09,218.48Z" style="opacity:0.30000000000000004"></path></g><g id="freepik--hand--inject-220"><path d="M244.48,227.16a11.09,11.09,0,0,1,1.26,2.06,1.19,1.19,0,0,1-.73.91,2.42,2.42,0,0,1-2.15-.06c-.43-.36-.79-.8-1.24-1.14a2.62,2.62,0,0,0-1.68-.56c-1.11,0-1,1.43-.6,2.22a1.37,1.37,0,0,0-1.1,1.39,4,4,0,0,0,.57,1.84,1.25,1.25,0,0,0-1.11,1.54,6,6,0,0,0,.44,1c0,.14-.2.43-.24.56a1.2,1.2,0,0,0,.16.82,8.37,8.37,0,0,0,2.66,2.77,4.79,4.79,0,0,0,1.83,1,5,5,0,0,0,1.88-.1c1.09-.21,2.2-.39,3.27-.68a.89.89,0,0,0,.64-.45c.2-.39.1-.86.31-1.23s.56-.61.46-1.12a2.47,2.47,0,0,1-.08-.6c0-.44.5-.72.71-1.11a1.77,1.77,0,0,0-.13-1.62,1.07,1.07,0,0,1-.18-.59,1.23,1.23,0,0,1,.21-.45c.65-1,.16-2.13-.45-3.06a9.4,9.4,0,0,0-1-1.54A5.32,5.32,0,0,0,244.48,227.16Z" style="fill:#455a64"></path><path d="M248.18,233.73a4.94,4.94,0,0,0-1.27.09c-.4.06-.8.1-1.2.14-.72.07-1.45.13-2.18.13a2.76,2.76,0,0,1-1.94-1,20.92,20.92,0,0,1-1.56-1.83s-.06.05-.05.07c.75,1.24,1.84,2.9,3.41,3.11a10.49,10.49,0,0,0,2.24,0c.46,0,.91-.09,1.37-.15a3,3,0,0,0,1.23-.29C248.31,233.93,248.28,233.74,248.18,233.73Z" style="fill:#37474f"></path><path d="M248,236.12a4.88,4.88,0,0,0-1.19.21l-1.14.24a6.06,6.06,0,0,1-2.39.23,5,5,0,0,1-2.12-1c-.59-.45-1.07-1-1.65-1.49-.07-.05-.09.1-.06.14a7,7,0,0,0,3.63,2.66,4.85,4.85,0,0,0,2.21-.07l1.3-.28a7.07,7.07,0,0,0,1.46-.35C248.09,236.33,248.05,236.12,248,236.12Z" style="fill:#37474f"></path><path d="M244.86,239.3a7.49,7.49,0,0,0-.77.23,3.16,3.16,0,0,1-.81.05,4,4,0,0,1-1.77-.64,11.8,11.8,0,0,1-1.4-1c-.25-.2-.49-.41-.73-.62a3.61,3.61,0,0,0-.78-.62c-.06,0-.06.09,0,.12a7.6,7.6,0,0,0,1.51,1.43,11,11,0,0,0,1.53,1.11,4.39,4.39,0,0,0,1.68.59c.49.06,1.37.09,1.71-.35C245.05,239.47,245,239.28,244.86,239.3Z" style="fill:#37474f"></path><path d="M239.72,227.23a3.74,3.74,0,0,0-2.06,4c.17,1.13.63,3.6.67,4.09s1,1.27,2.12-.49.59-3.5.68-4.37a2.13,2.13,0,0,1,.74-1.36A20.81,20.81,0,0,0,239.72,227.23Z" style="fill:#37474f"></path></g><g id="freepik--head--inject-220"><path d="M167.56,206.91c2.13-1.22,8.36,2.72,10.75,3.94a26.75,26.75,0,0,0,8,10.86c3.53,2.76,7.82,1.07,10.18-1.4s5.75-8.59,7.62-13.07,3.17-11.79-2.87-16.68-13.88-4.81-18,1.18l-5.53-.35S166.55,191.23,167.56,206.91Z" style="fill:#ffa8a7"></path><path d="M200.81,210.31s1.65,7.1,1.05,7.43-3.74-.33-3.74-.33Z" style="fill:#f28f8f"></path><path d="M179.64,205.15c.72,2.56,5.68,6.85,9.25,9.33s8.65,2.48,10.16,1.33,2.12-2.51,2.54-1.74l.25,1.51a11,11,0,0,0,4.59-1.34c2.24-1.27,3.55-5.4,3.55-5.4Z" style="fill:#263238"></path><g id="freepik--helmet--inject-220"><path d="M208.24,210.31c-3.83,3-10.58,2.78-17,1.44-7.32-1.53-10-4.48-12.37-7.61s-3.84-2.42-4.53,0-4.79-1.93-7.31-6.53-7.13-18.7-2.7-23.74,24.61-1.63,34.19,5.58C210.62,188.58,217.32,204.51,208.24,210.31Z" style="fill:#BA68C8"></path><path d="M208.24,210.31c-3.83,3-10.58,2.78-17,1.44-7.32-1.53-10-4.48-12.37-7.61s-3.84-2.42-4.53,0-4.79-1.93-7.31-6.53-7.13-18.7-2.7-23.74,24.61-1.63,34.19,5.58C210.62,188.58,217.32,204.51,208.24,210.31Z" style="fill:#fff;opacity:0.5"></path><path d="M202.21,212.51a18.13,18.13,0,0,0,2.17-.41c.89-6.27-2-14.4-8-22.3-6.3-8.24-18.85-15.27-28.48-17.79a7.7,7.7,0,0,0-3.1,1.43c9.31,1.67,23.41,9.08,29.94,17.61C201.59,200.06,203.11,207.8,202.21,212.51Z" style="fill:#fafafa"></path><path d="M202.33,187A51.88,51.88,0,0,0,186,173.59a51.81,51.81,0,0,0-9.23-1.88c7.93,2.77,17.46,8.26,23.89,16.53,6.29,8.09,8.63,15.63,7,22.45.18-.12.37-.24.55-.38a9.23,9.23,0,0,0,1.88-1.6C210.9,201.94,208.3,194.65,202.33,187Z" style="fill:#fafafa"></path><path d="M178.31,210.85a34.06,34.06,0,0,1-.15-5.7,12.3,12.3,0,0,0-1.22,5Z" style="fill:#f28f8f"></path><path d="M210,208.25c-4.36,2.63-8.89,2.78-13.77,1.33a21.33,21.33,0,0,1-9.12-5.76c-2.78-2.86-5.05-6.41-8.65-8.11-2.27-1.08-5-1.36-6.87-3a10.64,10.64,0,0,1-2.72-4.5,44.56,44.56,0,0,1-2.27-8.59,10.65,10.65,0,0,1,.22-5.58,5.15,5.15,0,0,1,1.66-2.17,7.5,7.5,0,0,0-4.15,2c-4.43,5,.18,19.15,2.7,23.74s6.63,9,7.31,6.53,2.19-3.14,4.53,0,5.05,6.08,12.37,7.61c6.44,1.34,13.19,1.52,17-1.44a8.8,8.8,0,0,0,3.07-3.28A4.45,4.45,0,0,1,210,208.25Z" style="fill:#BA68C8;opacity:0.5"></path><path d="M203.59,191.88c.08,1.73.69,3.41.72,5.14.07,3-1.58,5.77-3.41,8.16a2.45,2.45,0,0,0-.6,1.19,1.5,1.5,0,0,0,.89,1.37,3.56,3.56,0,0,0,1.68.3c3,0,6.25-1.36,7.51-4.1,1.79-3.91-.75-9.54-3.07-12.74-.57-.79-1.37-1.93-2.47-1.7S203.54,190.94,203.59,191.88Z" style="fill:#fff;opacity:0.5"></path><path d="M179.64,205.15l-1.6-2a33.09,33.09,0,0,0-.16,7.18l-3.51-6.41a.87.87,0,0,1-1.28.8c.95,1.56,1.82,3.22,2.89,4.7a9.28,9.28,0,0,0,2.77,3.07c.55.3.44-.6.46-.92,0-.52.06-1.05.1-1.57.07-1.15.15-2.3.23-3.45C179.57,206.1,179.6,205.63,179.64,205.15Z" style="fill:#37474f"></path></g></g></g></g></svg>
